<svg version="1.1" xmlns="http://www.w3.org/2000/svg" viewBox="237.7 4.4 1735.6 864.1">
<rect x="237.7" y="4.4" width="1735.6" height="864.1" fill="#202124" />
<polyline points="354.0 246.0,354.0 249.0,355.0 281.0,355.0 286.0,356.0 291.0,356.0 295.0,357.0 299.0,357.0 303.0,356.0 405.0,357.0 426.0,357.0 433.0,356.0 539.0,355.0 558.0,355.0 562.0,354.0 582.0,354.0 590.0,353.0 627.0,353.0 631.0,352.0 678.0,352.0 681.0,351.0 698.0,351.0 704.0,350.0 709.0,350.0 714.0,349.0 717.0" style="fill:none;stroke:#ffffff;stroke-width:2"/>
<polyline points="360.0 375.0,363.0 374.0,367.0 373.0,373.0 372.0,376.0 372.0,401.0 373.0,405.0 373.0,421.0 374.0,428.0 374.0,431.0 373.0,434.0 373.0,455.0 372.0,458.0 372.0,473.0 371.0,478.0 371.0,504.0 370.0,509.0 370.0,521.0 369.0,524.0 369.0,551.0 368.0,556.0 368.0,569.0 367.0,574.0 367.0,579.0 366.0,583.0 366.0,620.0 367.0,623.0 368.0,627.0 370.0,630.0 372.0,631.0 375.0,632.0 380.0,632.0 384.0,634.0 388.0,635.0 391.0,636.0 397.0,637.0 399.0,637.0 402.0,638.0 409.0,638.0 413.0,639.0 424.0,639.0 428.0,640.0 433.0,640.0 437.0,641.0 441.0,641.0 445.0,641.0 449.0" style="fill:none;stroke:#ffffff;stroke-width:2"/>
<polyline points="639.0 448.0,640.0 451.0,640.0 455.0,641.0 457.0,642.0 460.0,646.0 460.0,686.0 461.0,689.0 461.0,693.0 462.0,696.0 462.0,700.0 463.0,704.0 463.0,711.0 464.0,714.0 464.0,733.0 465.0,741.0 465.0,753.0 464.0,760.0 464.0,838.0 464.0" style="fill:none;stroke:#ffffff;stroke-width:2"/>
<polyline points="844.0 398.0,846.0 400.0,846.0 405.0,847.0 408.0,847.0 411.0,845.0 483.0,845.0 487.0,844.0 496.0,844.0 501.0,843.0 514.0,843.0 517.0,844.0 527.0,844.0 530.0,845.0 532.0,846.0 537.0,847.0 541.0,849.0 544.0,850.0 545.0" style="fill:none;stroke:#ffffff;stroke-width:2"/>
<polyline points="358.0 519.0,361.0 520.0,364.0 520.0,391.0 519.0,394.0 519.0,400.0 518.0,407.0 518.0,410.0 517.0,414.0 517.0,421.0 516.0,425.0 516.0,432.0 515.0,438.0 515.0,466.0 514.0,469.0 514.0,485.0 514.0" style="fill:none;stroke:#ffffff;stroke-width:2"/>
<polyline points="493.0 510.0,496.0 508.0,498.0 509.0,502.0 509.0,534.0 508.0,538.0 508.0,560.0 507.0,564.0 507.0,583.0 506.0" style="fill:none;stroke:#ffffff;stroke-width:2"/>
<polyline points="587.0 505.0,587.0 510.0,586.0 528.0,586.0 531.0,587.0 564.0,588.0 569.0,588.0 572.0,589.0 574.0,589.0 577.0,591.0 581.0,592.0 582.0" style="fill:none;stroke:#ffffff;stroke-width:2"/>
<polyline points="592.0 510.0,593.0 507.0,596.0 509.0,602.0 509.0,657.0 508.0,662.0 508.0,690.0 507.0,701.0 507.0,718.0 506.0,728.0 506.0,752.0 505.0,756.0 505.0,768.0 504.0,772.0 504.0,817.0 505.0,820.0 505.0,824.0 506.0,828.0 506.0,832.0 506.0" style="fill:none;stroke:#ffffff;stroke-width:2"/>
<polyline points="352.0 705.0,352.0 709.0,352.0 728.0" style="fill:none;stroke:#ffffff;stroke-width:2"/>
<polyline points="349.0 684.0,349.0 688.0,350.0 691.0,350.0 694.0,351.0 704.0,351.0 708.0,352.0 720.0,352.0 724.0,351.0 748.0,351.0 756.0,350.0 763.0,350.0 767.0,350.0 770.0" style="fill:none;stroke:#ffffff;stroke-width:2"/>
<polyline points="840.0 380.0,840.0 376.0,841.0 375.0" style="fill:none;stroke:#ffffff;stroke-width:2"/>
<polyline points="837.0 356.0,837.0 354.0" style="fill:none;stroke:#ffffff;stroke-width:2"/>
<polyline points="838.0 338.0,838.0 336.0" style="fill:none;stroke:#ffffff;stroke-width:2"/>
<polyline points="845.0 604.0,846.0 605.0" style="fill:none;stroke:#ffffff;stroke-width:2"/>
<polyline points="849.0 628.0,848.0 631.0,848.0 633.0" style="fill:none;stroke:#ffffff;stroke-width:2"/>
<polyline points="351.0 168.0,352.0 171.0" style="fill:none;stroke:#ffffff;stroke-width:2"/>
<polyline points="349.0 218.0,350.0 219.0" style="fill:none;stroke:#ffffff;stroke-width:2"/>
<polyline points="353.0 788.0,353.0 790.0" style="fill:none;stroke:#ffffff;stroke-width:2"/>
<polyline points="353.0 822.0,353.0 824.0" style="fill:none;stroke:#ffffff;stroke-width:2"/>
<polyline points="354.0 838.0,355.0 842.0" style="fill:none;stroke:#ffffff;stroke-width:2"/>
<polyline points="535.0 589.0,538.0 588.0,542.0 588.0,545.0 589.0,547.0 588.0,550.0 588.0,570.0 589.0,567.0 590.0,566.0 591.0" style="fill:none;stroke:#52ffb2;stroke-width:2"/>
<polyline points="596.0 556.0,596.0 552.0,595.0 546.0,595.0 542.0,596.0 537.0,598.0 540.0,599.0 543.0,601.0 545.0" style="fill:none;stroke:#52ffb2;stroke-width:2"/>
<polyline points="562.0 500.0,543.0 501.0,539.0 501.0,541.0 499.0" style="fill:none;stroke:#52ffb2;stroke-width:2"/>
<polyline points="482.0 537.0,482.0 541.0,483.0 544.0,483.0 548.0,484.0 557.0,484.0 562.0,485.0 565.0,482.0 564.0,481.0 562.0,480.0 559.0" style="fill:none;stroke:#52ffb2;stroke-width:2"/>
<polyline points="848.0 415.0,850.0 412.0,852.0 410.0,853.0 407.0,856.0 406.0,853.0 407.0,851.0 409.0,844.0 415.0,843.0 417.0,841.0 418.0,840.0 421.0,841.0 419.0,843.0 417.0,852.0 408.0" style="fill:none;stroke:#ff5959;stroke-width:2"/>
<polyline points="839.0 409.0,842.0 409.0,844.0 411.0,850.0 418.0,853.0 422.0,855.0 424.0,853.0 422.0,843.0 412.0" style="fill:none;stroke:#ff5959;stroke-width:2"/>
<polyline points="365.0 739.0,362.0 741.0,360.0 744.0,357.0 747.0,350.0 753.0,348.0 755.0,346.0 756.0,348.0 754.0,350.0 753.0,352.0 751.0,356.0 748.0,359.0 747.0" style="fill:none;stroke:#ff5959;stroke-width:2"/>
<polyline points="345.0 742.0,347.0 744.0,358.0 756.0,359.0 757.0" style="fill:none;stroke:#ff5959;stroke-width:2"/>
<polyline points="298.0 728.0,297.0 725.0,294.0 724.0,291.0 726.0,289.0 728.0,290.0 732.0,292.0 733.0,296.0 737.0,299.0 739.0,302.0 742.0,303.0 744.0,305.0 746.0,306.0 749.0,305.0 752.0,302.0 753.0,295.0 753.0,279.0 752.0" style="fill:none;stroke:#ff5959;stroke-width:2"/>
<polyline points="898.0 385.0,900.0 383.0,897.0 382.0,893.0 382.0,888.0 384.0,886.0 386.0,883.0 388.0,875.0 393.0,873.0 395.0,872.0 397.0,871.0 402.0,873.0 408.0,880.0 413.0,883.0 414.0,887.0 414.0,889.0 415.0,894.0 415.0,898.0 413.0,899.0 412.0" style="fill:none;stroke:#ff5959;stroke-width:2"/>
<polyline points="873.0 398.0,876.0 398.0,898.0 398.0" style="fill:none;stroke:#ff5959;stroke-width:2"/>
<polyline points="327.0 572.0,328.0 569.0,327.0 566.0,327.0 570.0,328.0 576.0,328.0 579.0,329.0 582.0,330.0 584.0,328.0 580.0,327.0 577.0,326.0 575.0,325.0 571.0,324.0 569.0,323.0 566.0,322.0 564.0,323.0 561.0,325.0 559.0,328.0 560.0,330.0 561.0,332.0 563.0,333.0 565.0,334.0 570.0,333.0 573.0,331.0 576.0,329.0 577.0,327.0 577.0" style="fill:none;stroke:#fff338;stroke-width:2"/>
<polyline points="498.0 581.0,500.0 580.0,503.0 580.0,524.0 579.0,528.0 579.0,543.0 580.0,547.0 580.0,582.0 579.0" style="fill:none;stroke:#ffffff;stroke-width:2"/>
<polyline points="487.0 513.0,489.0 514.0,489.0 519.0,490.0 522.0,490.0 526.0,491.0 529.0,491.0 532.0,492.0 535.0,492.0 541.0,493.0 574.0,493.0 577.0,495.0 581.0,496.0 583.0" style="fill:none;stroke:#ffffff;stroke-width:2"/>
<polyline points="499.0 587.0,499.0 583.0,496.0 582.0,492.0 584.0,490.0 586.0,487.0 590.0,485.0 593.0,483.0 597.0,482.0 602.0,481.0 605.0,480.0 613.0,480.0 616.0,481.0 626.0,481.0 629.0,482.0 634.0,482.0 637.0,483.0 644.0,483.0 648.0,482.0 655.0,481.0 660.0,480.0 663.0,479.0 665.0,477.0 668.0,475.0 670.0,473.0 673.0,471.0 675.0,465.0 679.0,462.0 680.0,458.0 681.0,454.0 681.0,452.0 682.0,446.0 683.0,442.0 683.0,437.0 684.0,433.0 684.0,428.0 683.0,425.0 682.0,423.0 679.0,423.0 676.0,424.0 666.0,425.0 662.0,426.0 659.0,427.0 654.0,427.0 651.0,428.0 648.0,428.0 644.0,427.0 639.0,427.0 636.0,426.0 634.0,425.0 631.0,423.0 626.0,422.0 624.0,418.0 617.0,416.0 615.0,413.0 613.0,409.0 613.0,400.0 614.0,398.0 615.0,396.0 617.0,392.0 623.0,388.0 631.0,385.0 636.0,382.0 639.0,381.0 641.0,377.0 644.0,374.0 647.0,371.0 649.0,367.0 651.0,364.0 652.0,362.0 653.0,359.0 654.0,354.0 655.0,351.0 657.0" style="fill:none;stroke:#ffffff;stroke-width:2"/>
<polyline points="508.0 654.0,507.0 658.0,507.0 661.0,506.0 665.0,506.0 668.0,505.0 674.0,505.0 678.0,506.0 679.0" style="fill:none;stroke:#fff338;stroke-width:2"/>
<polyline points="493.0 651.0,497.0 651.0,500.0 650.0,503.0 650.0,517.0 651.0,519.0 651.0" style="fill:none;stroke:#fff338;stroke-width:2"/>
<polyline points="545.0 531.0,543.0 529.0,541.0 528.0,538.0 529.0,538.0 533.0,539.0 535.0,541.0 538.0,543.0 540.0,545.0 541.0,547.0 543.0,550.0 547.0,551.0 550.0,548.0 551.0,545.0 551.0,541.0 550.0,538.0 550.0,536.0 549.0,532.0 548.0,533.0 547.0" style="fill:none;stroke:#fff338;stroke-width:2"/>
<polyline points="730.0 521.0,732.0 519.0,730.0 517.0,725.0 517.0,723.0 518.0,720.0 519.0,718.0 520.0,720.0 523.0,724.0 524.0,726.0 526.0,729.0 528.0,730.0 530.0,728.0 533.0,725.0 534.0,723.0 535.0,718.0 535.0,715.0 534.0,713.0 533.0,711.0 531.0" style="fill:none;stroke:#fff338;stroke-width:2"/>
<polyline points="873.0 527.0,873.0 522.0,872.0 517.0,873.0 520.0,873.0 525.0,874.0 527.0,874.0 524.0,875.0 512.0,876.0 508.0,877.0 506.0,879.0 503.0,881.0 502.0,884.0 501.0,887.0 501.0,889.0 502.0,892.0 504.0,894.0 506.0,895.0 510.0,895.0 513.0,894.0 516.0,892.0 518.0,889.0 520.0,885.0 520.0,880.0 519.0" style="fill:none;stroke:#fff338;stroke-width:2"/>
<polyline points="759.0 697.0,760.0 701.0,760.0 705.0,761.0 708.0,763.0 716.0,764.0 719.0,765.0 721.0,766.0 724.0,764.0 721.0,763.0 716.0,762.0 714.0,760.0 708.0,758.0 699.0,757.0 694.0,757.0 689.0,759.0 686.0,761.0 684.0,766.0 683.0,770.0 684.0,773.0 686.0,775.0 687.0,777.0 689.0,778.0 691.0,781.0 696.0,782.0 700.0,781.0 703.0,779.0 706.0,777.0 707.0,773.0 708.0,770.0 708.0,765.0 707.0" style="fill:none;stroke:#fff338;stroke-width:2"/>
<polyline points="780.0 750.0,779.0 747.0,775.0 746.0,772.0 747.0,768.0 749.0,765.0 750.0,762.0 753.0,761.0 756.0,762.0 758.0,766.0 760.0,769.0 762.0,773.0 764.0,776.0 766.0,777.0 768.0,777.0 771.0,775.0 773.0,771.0 775.0,768.0 777.0,764.0 777.0,759.0 776.0,756.0 775.0" style="fill:none;stroke:#fff338;stroke-width:2"/>
<polyline points="764.0 796.0,764.0 801.0,765.0 804.0,765.0 808.0,766.0 811.0,766.0 815.0,767.0 820.0,767.0 826.0,768.0 829.0" style="fill:none;stroke:#fff338;stroke-width:2"/>
<polyline points="747.0 794.0,750.0 793.0,754.0 793.0,757.0 792.0,761.0 792.0,768.0 791.0,771.0 791.0,777.0 790.0,783.0 790.0,792.0 790.0" style="fill:none;stroke:#fff338;stroke-width:2"/>
<polyline points="794.0 710.0,795.0 713.0,796.0 718.0,798.0 720.0,800.0 717.0,801.0 714.0,802.0 712.0,804.0 709.0,806.0 707.0" style="fill:none;stroke:#ffffff;stroke-width:2"/>
<polyline points="811.0 711.0,812.0 714.0,812.0 717.0,814.0 719.0" style="fill:none;stroke:#ffffff;stroke-width:2"/>
<polyline points="816.0 709.0,814.0 706.0,813.0 703.0,813.0 701.0" style="fill:none;stroke:#ffffff;stroke-width:2"/>
<polyline points="827.0 707.0,827.0 711.0,828.0 721.0,830.0 719.0,831.0 717.0,833.0 716.0,834.0 713.0,836.0 711.0,837.0 715.0,838.0 718.0,839.0 720.0,841.0 719.0,845.0 715.0,848.0 711.0,850.0 709.0,851.0 712.0,851.0 715.0,850.0 718.0,851.0 721.0,852.0 723.0" style="fill:none;stroke:#ffffff;stroke-width:2"/>
<polyline points="866.0 715.0,864.0 713.0,862.0 712.0,860.0 714.0,858.0 718.0,858.0 722.0,860.0 723.0,864.0 722.0,867.0 720.0,868.0 718.0,869.0 721.0,871.0 724.0,873.0 725.0" style="fill:none;stroke:#ffffff;stroke-width:2"/>
<polyline points="882.0 718.0,881.0 715.0,881.0 712.0,883.0 723.0,885.0 721.0,886.0 719.0,889.0 715.0,891.0 712.0,894.0 710.0" style="fill:none;stroke:#ffffff;stroke-width:2"/>
<polyline points="903.0 711.0,901.0 713.0,900.0 716.0,901.0 718.0,904.0 720.0,907.0 719.0,909.0 718.0,911.0 716.0,909.0 719.0,908.0 721.0,907.0 724.0,904.0 732.0,903.0 736.0,901.0 740.0,900.0 743.0,897.0 750.0,896.0 753.0,895.0 755.0" style="fill:none;stroke:#ffffff;stroke-width:2"/>
<polyline points="791.0 769.0,793.0 767.0,795.0 766.0,798.0 765.0,800.0 764.0,801.0 761.0,800.0 759.0,797.0 759.0,794.0 760.0,792.0 761.0,789.0 765.0,789.0 770.0,792.0 772.0,795.0 773.0,797.0 772.0,801.0 772.0" style="fill:none;stroke:#ffffff;stroke-width:2"/>
<polyline points="816.0 763.0,814.0 762.0,810.0 763.0,808.0 764.0,806.0 766.0,805.0 769.0,806.0 771.0,808.0 772.0,814.0 772.0,816.0 771.0" style="fill:none;stroke:#ffffff;stroke-width:2"/>
<polyline points="824.0 764.0,819.0 765.0,817.0 768.0,818.0 771.0,821.0 772.0,826.0 772.0,829.0 770.0,831.0 768.0,830.0 765.0,828.0 763.0" style="fill:none;stroke:#ffffff;stroke-width:2"/>
<polyline points="838.0 760.0,836.0 761.0,836.0 766.0,837.0 769.0,840.0 769.0,842.0 768.0,845.0 766.0,847.0 763.0,846.0 765.0,846.0 769.0" style="fill:none;stroke:#ffffff;stroke-width:2"/>
<polyline points="859.0 765.0,858.0 762.0,856.0 764.0,854.0 768.0,855.0 770.0,858.0 769.0,861.0 767.0,863.0 765.0,865.0 760.0,866.0 757.0,866.0 754.0,865.0 745.0,864.0 742.0,862.0 744.0,862.0 749.0,863.0 763.0,864.0 766.0,865.0 769.0" style="fill:none;stroke:#ffffff;stroke-width:2"/>
<polyline points="879.0 766.0,878.0 763.0,875.0 764.0,873.0 766.0,872.0 769.0,873.0 772.0,876.0 773.0,879.0 771.0,881.0 768.0,882.0 770.0,885.0 772.0,887.0 772.0" style="fill:none;stroke:#ffffff;stroke-width:2"/>
<polyline points="893.0 762.0,892.0 765.0,891.0 770.0,893.0 772.0,897.0 767.0,899.0 765.0,900.0 763.0" style="fill:none;stroke:#ffffff;stroke-width:2"/>
<polyline points="911.0 761.0,909.0 764.0,909.0 768.0,911.0 769.0,915.0 768.0,918.0 767.0,922.0 766.0,924.0 764.0,921.0 767.0,920.0 769.0,913.0 781.0,912.0 784.0,910.0 789.0" style="fill:none;stroke:#ffffff;stroke-width:2"/>
<polyline points="792.0 820.0,796.0 819.0,798.0 818.0,800.0 816.0,802.0 815.0,800.0 813.0,797.0 813.0,792.0 815.0,790.0 816.0,788.0 818.0,788.0 822.0,789.0 824.0,793.0 826.0,796.0 826.0,802.0 827.0,807.0 826.0,809.0 826.0" style="fill:none;stroke:#ffffff;stroke-width:2"/>
<polyline points="814.0 816.0,813.0 819.0,813.0 822.0,814.0 827.0,816.0 826.0,818.0 824.0,819.0 822.0,821.0 819.0,823.0 817.0" style="fill:none;stroke:#ffffff;stroke-width:2"/>
<polyline points="836.0 793.0,835.0 790.0,835.0 793.0,836.0 795.0,836.0 803.0,837.0 812.0,837.0 816.0,837.0 825.0" style="fill:none;stroke:#ffffff;stroke-width:2"/>
<polyline points="827.0 814.0,829.0 813.0,832.0 813.0,836.0 812.0,838.0 811.0,840.0 811.0" style="fill:none;stroke:#ffffff;stroke-width:2"/>
<polyline points="855.0 810.0,854.0 813.0,853.0 815.0,853.0 819.0,854.0 822.0,856.0 814.0,856.0 810.0,855.0 807.0,855.0 803.0,857.0 805.0" style="fill:none;stroke:#ffffff;stroke-width:2"/>
<polyline points="875.0 808.0,870.0 809.0,867.0 812.0,866.0 815.0,866.0 819.0,869.0 820.0,871.0 819.0,873.0 817.0,875.0 813.0,873.0 814.0,872.0 817.0,873.0 820.0,874.0 822.0,875.0 823.0" style="fill:none;stroke:#ffffff;stroke-width:2"/>
<polyline points="888.0 817.0,888.0 813.0,889.0 816.0,889.0 821.0,890.0 823.0,892.0 822.0,894.0 820.0,901.0 813.0" style="fill:none;stroke:#ffffff;stroke-width:2"/>
<polyline points="907.0 814.0,905.0 817.0,907.0 819.0,910.0 820.0,913.0 818.0,916.0 817.0,920.0 815.0,918.0 816.0,916.0 818.0,912.0 824.0,908.0 831.0,906.0 835.0,902.0 845.0,900.0 848.0" style="fill:none;stroke:#ffffff;stroke-width:2"/>
<polyline points="352.0 738.0,352.0 734.0,353.0 732.0,353.0 728.0,352.0 706.0,352.0 702.0,351.0 690.0,351.0 686.0,350.0 683.0,350.0 679.0,351.0 669.0,351.0 665.0,352.0 658.0,355.0 657.0,359.0 655.0,361.0 653.0,363.0 652.0,366.0 650.0,368.0 648.0,376.0 641.0,378.0 639.0,389.0 629.0,391.0 627.0,399.0 620.0,401.0 618.0,404.0 616.0,406.0 615.0,410.0 614.0,414.0 614.0,423.0 615.0,425.0 616.0,427.0 618.0,430.0 622.0,431.0 625.0,431.0 629.0,430.0 636.0,430.0 640.0,429.0 653.0,428.0 656.0,428.0 660.0,426.0 664.0,425.0 667.0,425.0 671.0,426.0 680.0,428.0 682.0,432.0 682.0,440.0 681.0,443.0 680.0,447.0 680.0,449.0 679.0,453.0 679.0,461.0 678.0,464.0 677.0,468.0 675.0,471.0 674.0,474.0 672.0,476.0 671.0,478.0 669.0,482.0 664.0,483.0 661.0,485.0 656.0,486.0 653.0,486.0 649.0,485.0 636.0,485.0 632.0,484.0 617.0,485.0 613.0,485.0 609.0,486.0 598.0,487.0 595.0,489.0 591.0,491.0 589.0,497.0 584.0,499.0 583.0,502.0 582.0,507.0 581.0,510.0 582.0,513.0 582.0,516.0 583.0,521.0 584.0,523.0 585.0,526.0 584.0,530.0 584.0,534.0 583.0,540.0 582.0,544.0 581.0,548.0 581.0,551.0 580.0,556.0 579.0,558.0 578.0,562.0 578.0,569.0 577.0,572.0 578.0,576.0 578.0,579.0 579.0,583.0 579.0" style="fill:none;stroke:#61ff6f;stroke-width:2"/>
<polyline points="584.0 578.0,586.0 576.0,586.0 572.0,587.0 569.0,587.0 565.0,586.0 541.0,586.0 537.0,587.0 515.0,587.0 512.0,590.0 510.0,593.0 509.0,598.0 508.0,602.0 508.0,605.0 507.0,609.0 507.0,613.0 506.0,619.0 507.0,623.0 507.0,629.0 506.0,633.0 506.0,639.0 505.0,642.0 505.0,645.0 506.0,648.0 506.0,657.0 505.0,661.0 505.0,666.0 504.0,670.0 504.0,673.0 505.0,677.0 505.0,680.0 504.0,684.0 504.0,704.0 505.0,709.0 505.0,730.0 506.0,734.0 506.0,739.0 507.0,743.0 507.0,763.0 506.0,767.0 506.0,780.0 505.0,784.0 505.0,809.0 506.0,813.0 506.0,827.0 505.0,831.0 505.0,834.0 506.0,838.0 506.0,841.0 505.0,845.0 505.0,847.0 503.0,848.0 500.0,848.0 496.0,849.0 493.0,849.0 489.0,850.0 478.0,850.0 474.0,851.0 472.0,851.0 468.0,852.0 463.0,851.0 461.0,851.0 457.0,852.0 446.0,852.0 442.0,853.0 439.0,853.0 435.0,852.0 429.0,851.0 426.0,850.0 424.0,848.0 421.0,847.0 418.0" style="fill:none;stroke:#61ff6f;stroke-width:2"/>
<polyline points="612.0 498.0,612.0 501.0,612.0 510.0" style="fill:none;stroke:#c86cff;stroke-width:2"/>
<polyline points="613.0 498.0,612.0 501.0,612.0 505.0,612.0 513.0" style="fill:none;stroke:#c86cff;stroke-width:2"/>
<polyline points="632.0 498.0,632.0 501.0,633.0 513.0" style="fill:none;stroke:#c86cff;stroke-width:2"/>
<polyline points="653.0 498.0,654.0 502.0,654.0 506.0,655.0 511.0,655.0 513.0" style="fill:none;stroke:#c86cff;stroke-width:2"/>
<polyline points="675.0 495.0,675.0 499.0,676.0 507.0,676.0 511.0,676.0 513.0" style="fill:none;stroke:#c86cff;stroke-width:2"/>
<polyline points="698.0 497.0,698.0 501.0,699.0 510.0,699.0 513.0" style="fill:none;stroke:#c86cff;stroke-width:2"/>
<polyline points="718.0 500.0,717.0 503.0,717.0 507.0,718.0 511.0,718.0 513.0,719.0 514.0" style="fill:none;stroke:#c86cff;stroke-width:2"/>
<polyline points="736.0 500.0,737.0 503.0,737.0 507.0,738.0 510.0,738.0 513.0,739.0 514.0" style="fill:none;stroke:#c86cff;stroke-width:2"/>
<polyline points="759.0 495.0,758.0 500.0,758.0 505.0,758.0 515.0" style="fill:none;stroke:#c86cff;stroke-width:2"/>
<polyline points="779.0 497.0,779.0 502.0,780.0 505.0,780.0 509.0,781.0 512.0,781.0 513.0" style="fill:none;stroke:#c86cff;stroke-width:2"/>
<polyline points="803.0 497.0,803.0 502.0,804.0 512.0" style="fill:none;stroke:#c86cff;stroke-width:2"/>
<polyline points="823.0 499.0,823.0 503.0,822.0 508.0,822.0 512.0,823.0 515.0" style="fill:none;stroke:#c86cff;stroke-width:2"/>
<polyline points="588.0 503.0,590.0 506.0,592.0 508.0,594.0 511.0,597.0 515.0" style="fill:none;stroke:#c86cff;stroke-width:2"/>
<polyline points="579.0 529.0,583.0 528.0,587.0 528.0,592.0 528.0" style="fill:none;stroke:#c86cff;stroke-width:2"/>
<polyline points="578.0 547.0,583.0 547.0,593.0 547.0" style="fill:none;stroke:#c86cff;stroke-width:2"/>
<polyline points="580.0 566.0,582.0 565.0,586.0 565.0,589.0 566.0,591.0 566.0" style="fill:none;stroke:#c86cff;stroke-width:2"/>
<polyline points="578.0 575.0,579.0 578.0,581.0 581.0,583.0 583.0,584.0 584.0" style="fill:none;stroke:#c86cff;stroke-width:2"/>
<polyline points="561.0 573.0,561.0 577.0,562.0 581.0" style="fill:none;stroke:#c86cff;stroke-width:2"/>
<polyline points="548.0 574.0,548.0 578.0,547.0 580.0,547.0 584.0,547.0 588.0" style="fill:none;stroke:#c86cff;stroke-width:2"/>
<polyline points="524.0 577.0,524.0 582.0,525.0 587.0" style="fill:none;stroke:#c86cff;stroke-width:2"/>
<polyline points="502.0 577.0,501.0 579.0,502.0 582.0,503.0 586.0,504.0 589.0,504.0 591.0" style="fill:none;stroke:#c86cff;stroke-width:2"/>
<polyline points="480.0 590.0,482.0 592.0,487.0 596.0,492.0 599.0" style="fill:none;stroke:#c86cff;stroke-width:2"/>
<polyline points="474.0 617.0,477.0 616.0,480.0 616.0,495.0 616.0" style="fill:none;stroke:#c86cff;stroke-width:2"/>
<polyline points="476.0 635.0,478.0 636.0,484.0 636.0,492.0 636.0" style="fill:none;stroke:#c86cff;stroke-width:2"/>
<polyline points="476.0 650.0,478.0 651.0,491.0 657.0" style="fill:none;stroke:#c86cff;stroke-width:2"/>
<polyline points="472.0 664.0,473.0 667.0,475.0 672.0,476.0 674.0,477.0 676.0" style="fill:none;stroke:#c86cff;stroke-width:2"/>
<polyline points="459.0 675.0,459.0 680.0,459.0 686.0" style="fill:none;stroke:#c86cff;stroke-width:2"/>
<polyline points="447.0 679.0,445.0 677.0,444.0 679.0,443.0 682.0,442.0 686.0,442.0 688.0" style="fill:none;stroke:#c86cff;stroke-width:2"/>
<polyline points="434.0 675.0,431.0 676.0,429.0 678.0,427.0 679.0,424.0 682.0,422.0 686.0,421.0 687.0" style="fill:none;stroke:#c86cff;stroke-width:2"/>
<polyline points="420.0 665.0,422.0 663.0,426.0 660.0,429.0 659.0,432.0 659.0,436.0 658.0,439.0 657.0" style="fill:none;stroke:#c86cff;stroke-width:2"/>
<polyline points="421.0 644.0,423.0 642.0,426.0 641.0,434.0 639.0,436.0 638.0,439.0 637.0" style="fill:none;stroke:#c86cff;stroke-width:2"/>
<polyline points="422.0 608.0,421.0 611.0,419.0 613.0,418.0 617.0,417.0 619.0,416.0 622.0,415.0 624.0" style="fill:none;stroke:#c86cff;stroke-width:2"/>
<polyline points="400.0 612.0,400.0 615.0,401.0 618.0,403.0 624.0" style="fill:none;stroke:#c86cff;stroke-width:2"/>
<polyline points="386.0 621.0,388.0 623.0,391.0 627.0,394.0 632.0" style="fill:none;stroke:#c86cff;stroke-width:2"/>
<polyline points="376.0 636.0,377.0 638.0,379.0 641.0,382.0 645.0,383.0 646.0" style="fill:none;stroke:#c86cff;stroke-width:2"/>
<polyline points="358.0 648.0,359.0 650.0,361.0 652.0,365.0 657.0,367.0 659.0" style="fill:none;stroke:#c86cff;stroke-width:2"/>
<polyline points="345.0 664.0,349.0 664.0,352.0 665.0,356.0 666.0,359.0 667.0,362.0 667.0" style="fill:none;stroke:#c86cff;stroke-width:2"/>
<polyline points="345.0 687.0,349.0 687.0,356.0 687.0" style="fill:none;stroke:#c86cff;stroke-width:2"/>
<polyline points="348.0 714.0,351.0 715.0,354.0 715.0,357.0 716.0" style="fill:none;stroke:#c86cff;stroke-width:2"/>
<polyline points="839.0 500.0,840.0 503.0,841.0 505.0,844.0 508.0,845.0 509.0" style="fill:none;stroke:#c86cff;stroke-width:2"/>
<polyline points="838.0 491.0,843.0 491.0,853.0 491.0" style="fill:none;stroke:#c86cff;stroke-width:2"/>
<polyline points="839.0 477.0,842.0 475.0,847.0 474.0,851.0 473.0,854.0 472.0,858.0 471.0" style="fill:none;stroke:#c86cff;stroke-width:2"/>
<polyline points="848.0 456.0,852.0 456.0,855.0 455.0,860.0 454.0" style="fill:none;stroke:#c86cff;stroke-width:2"/>
<polyline points="845.0 440.0,847.0 439.0,850.0 438.0,853.0 438.0,859.0 438.0" style="fill:none;stroke:#c86cff;stroke-width:2"/>
<polyline points="468.0 741.0,469.0 746.0,469.0 749.0,468.0 756.0,468.0 752.0,469.0 746.0,469.0 742.0,470.0 740.0,471.0 737.0,472.0 735.0,474.0 732.0,476.0 730.0,478.0 733.0,479.0 735.0,480.0 740.0,479.0 743.0,475.0 750.0,473.0 751.0,475.0 752.0,477.0 754.0,481.0 759.0,483.0 761.0,486.0 764.0" style="fill:none;stroke:#61ff6f;stroke-width:2"/>
<polyline points="491.0 783.0,488.0 781.0,486.0 780.0,483.0 779.0,478.0 779.0,475.0 780.0,473.0 781.0,470.0 783.0,469.0 785.0,468.0 788.0,468.0 793.0,469.0 795.0,471.0 798.0,473.0 799.0,476.0 801.0,482.0 802.0,486.0 803.0,488.0 802.0,491.0 802.0,493.0 801.0,495.0 800.0" style="fill:none;stroke:#c86cff;stroke-width:2"/>
<polyline points="500.0 756.0,498.0 753.0,495.0 754.0,492.0 756.0,491.0 758.0,491.0 762.0,493.0 763.0,498.0 762.0,501.0 761.0,503.0 760.0,505.0 758.0,503.0 753.0,500.0 752.0" style="fill:none;stroke:#ffffff;stroke-width:2"/>
<polyline points="514.0 753.0,512.0 755.0,512.0 758.0,513.0 760.0,516.0 762.0,519.0 762.0,522.0 761.0,523.0 759.0,524.0 758.0" style="fill:none;stroke:#ffffff;stroke-width:2"/>
<polyline points="538.0 731.0,537.0 727.0,536.0 725.0,534.0 728.0,534.0 738.0,535.0 757.0,535.0 760.0,536.0 765.0,537.0 768.0,538.0 769.0" style="fill:none;stroke:#ffffff;stroke-width:2"/>
<polyline points="525.0 751.0,529.0 751.0,532.0 750.0,537.0 750.0" style="fill:none;stroke:#ffffff;stroke-width:2"/>
<polyline points="546.0 756.0,550.0 756.0,555.0 755.0,558.0 755.0,560.0 753.0,560.0 750.0,557.0 749.0,553.0 750.0,551.0 751.0,550.0 754.0,551.0 756.0,553.0 759.0,557.0 761.0,561.0 762.0,564.0 762.0" style="fill:none;stroke:#ffffff;stroke-width:2"/>
<polyline points="516.0 792.0,514.0 790.0,512.0 790.0,508.0 791.0,506.0 792.0,505.0 794.0,506.0 797.0,508.0 799.0,512.0 799.0,517.0 798.0,519.0 796.0,517.0 794.0,515.0 793.0,513.0 793.0" style="fill:none;stroke:#ffffff;stroke-width:2"/>
<polyline points="532.0 791.0,529.0 789.0,525.0 792.0,525.0 796.0,527.0 798.0,531.0 798.0,535.0 797.0,537.0 796.0,538.0 793.0,537.0 792.0" style="fill:none;stroke:#ffffff;stroke-width:2"/>
<polyline points="546.0 787.0,547.0 789.0,548.0 792.0,550.0 797.0,553.0 795.0,554.0 793.0,556.0 790.0,558.0 788.0" style="fill:none;stroke:#ffffff;stroke-width:2"/>
<polyline points="576.0 788.0,574.0 787.0,569.0 788.0,566.0 789.0,564.0 791.0,563.0 795.0,566.0 798.0,571.0 798.0,574.0 796.0,579.0 791.0,581.0 788.0,582.0 784.0,582.0 779.0,581.0 777.0,580.0 774.0,579.0 772.0,577.0 769.0,576.0 772.0,576.0 776.0,575.0 782.0,575.0 785.0,576.0 787.0,576.0 791.0,577.0 793.0,580.0 798.0" style="fill:none;stroke:#ffffff;stroke-width:2"/>
<polyline points="593.0 791.0,592.0 794.0,594.0 797.0,595.0 800.0,597.0 797.0,596.0 794.0,594.0 789.0,593.0 787.0,591.0 784.0,590.0 782.0,592.0 782.0" style="fill:none;stroke:#ffffff;stroke-width:2"/>
<polyline points="608.0 788.0,607.0 791.0,609.0 794.0,612.0 795.0,614.0 793.0,617.0 794.0,619.0 797.0,621.0 798.0" style="fill:none;stroke:#ffffff;stroke-width:2"/>
<polyline points="636.0 796.0,633.0 793.0,628.0 790.0,625.0 791.0,624.0 793.0,625.0 796.0,627.0 798.0,630.0 799.0,633.0 799.0,635.0 798.0,637.0 796.0,637.0 793.0,636.0 796.0,638.0 798.0,641.0 798.0,644.0 795.0,647.0 791.0,648.0 789.0,649.0 786.0,649.0 783.0,650.0 772.0,650.0 769.0,651.0 765.0,650.0 762.0,650.0 770.0,649.0 773.0,649.0 779.0,650.0 790.0" style="fill:none;stroke:#ffffff;stroke-width:2"/>
<polyline points="637.0 782.0,642.0 781.0,645.0 781.0,652.0 781.0" style="fill:none;stroke:#ffffff;stroke-width:2"/>
<polyline points="677.0 782.0,674.0 780.0,671.0 781.0,669.0 783.0,667.0 786.0,667.0 790.0,669.0 792.0,674.0 794.0,680.0 795.0,688.0 795.0,692.0 794.0" style="fill:none;stroke:#ffffff;stroke-width:2"/>
<polyline points="1453.0 269.0,1450.0 268.0,1449.0 268.0" style="fill:none;stroke:#ffffff;stroke-width:2"/>
<polyline points="1251.0 91.0,1253.0 90.0,1256.0 89.0,1258.0 87.0,1260.0 87.0" style="fill:none;stroke:#c86cff;stroke-width:2"/>
<polyline points="1252.0 86.0,1253.0 90.0,1254.0 92.0,1256.0 95.0,1257.0 96.0" style="fill:none;stroke:#c86cff;stroke-width:2"/>
<polyline points="1241.0 133.0,1244.0 132.0,1247.0 131.0" style="fill:none;stroke:#c86cff;stroke-width:2"/>
<polyline points="1240.0 128.0,1241.0 130.0,1243.0 132.0,1244.0 134.0,1247.0 137.0" style="fill:none;stroke:#c86cff;stroke-width:2"/>
<polyline points="1304.0 163.0,1306.0 161.0,1312.0 156.0" style="fill:none;stroke:#c86cff;stroke-width:2"/>
<polyline points="1305.0 156.0,1306.0 159.0,1308.0 161.0,1309.0 162.0" style="fill:none;stroke:#c86cff;stroke-width:2"/>
<polyline points="1347.0 172.0,1350.0 170.0,1353.0 168.0" style="fill:none;stroke:#c86cff;stroke-width:2"/>
<polyline points="1349.0 165.0,1350.0 167.0,1353.0 171.0,1355.0 173.0" style="fill:none;stroke:#c86cff;stroke-width:2"/>
<polyline points="1389.0 153.0,1391.0 150.0,1393.0 148.0,1396.0 145.0" style="fill:none;stroke:#c86cff;stroke-width:2"/>
<polyline points="1393.0 138.0,1394.0 142.0,1396.0 144.0,1397.0 146.0,1399.0 148.0,1400.0 149.0" style="fill:none;stroke:#c86cff;stroke-width:2"/>
<polyline points="1451.0 149.0,1454.0 147.0,1457.0 145.0" style="fill:none;stroke:#c86cff;stroke-width:2"/>
<polyline points="1455.0 138.0,1456.0 141.0,1458.0 143.0,1459.0 145.0,1461.0 147.0" style="fill:none;stroke:#c86cff;stroke-width:2"/>
<polyline points="1451.0 187.0,1454.0 185.0,1456.0 184.0,1459.0 183.0,1461.0 183.0" style="fill:none;stroke:#c86cff;stroke-width:2"/>
<polyline points="1450.0 180.0,1453.0 183.0,1456.0 187.0" style="fill:none;stroke:#c86cff;stroke-width:2"/>
<polyline points="1455.0 214.0,1456.0 211.0,1459.0 210.0,1463.0 210.0,1465.0 210.0" style="fill:none;stroke:#c86cff;stroke-width:2"/>
<polyline points="1456.0 206.0,1457.0 209.0,1459.0 213.0,1461.0 215.0" style="fill:none;stroke:#c86cff;stroke-width:2"/>
<polyline points="1433.0 282.0,1436.0 282.0,1438.0 281.0,1442.0 281.0,1445.0 280.0,1449.0 280.0" style="fill:none;stroke:#c86cff;stroke-width:2"/>
<polyline points="1442.0 277.0,1440.0 280.0,1441.0 282.0,1442.0 285.0" style="fill:none;stroke:#c86cff;stroke-width:2"/>
<polyline points="1423.0 317.0,1427.0 317.0,1429.0 316.0,1432.0 315.0" style="fill:none;stroke:#c86cff;stroke-width:2"/>
<polyline points="1428.0 314.0,1427.0 317.0,1429.0 320.0,1430.0 322.0" style="fill:none;stroke:#c86cff;stroke-width:2"/>
<polyline points="1369.0 339.0,1371.0 337.0,1373.0 336.0,1376.0 334.0,1378.0 334.0" style="fill:none;stroke:#c86cff;stroke-width:2"/>
<polyline points="1370.0 332.0,1370.0 336.0,1371.0 338.0,1374.0 342.0" style="fill:none;stroke:#c86cff;stroke-width:2"/>
<polyline points="1398.0 371.0,1395.0 373.0,1393.0 375.0,1392.0 377.0,1391.0 378.0" style="fill:none;stroke:#c86cff;stroke-width:2"/>
<polyline points="1386.0 371.0,1388.0 373.0,1390.0 374.0,1394.0 376.0" style="fill:none;stroke:#c86cff;stroke-width:2"/>
<polyline points="1364.0 420.0,1366.0 419.0,1374.0 415.0" style="fill:none;stroke:#c86cff;stroke-width:2"/>
<polyline points="1369.0 411.0,1371.0 413.0,1373.0 416.0,1376.0 420.0" style="fill:none;stroke:#c86cff;stroke-width:2"/>
<polyline points="1414.0 433.0,1410.0 434.0,1408.0 436.0,1407.0 438.0" style="fill:none;stroke:#c86cff;stroke-width:2"/>
<polyline points="1407.0 432.0,1410.0 433.0,1412.0 435.0,1415.0 437.0" style="fill:none;stroke:#c86cff;stroke-width:2"/>
<polyline points="1451.0 458.0,1453.0 456.0,1456.0 454.0,1458.0 453.0" style="fill:none;stroke:#c86cff;stroke-width:2"/>
<polyline points="1454.0 452.0,1455.0 457.0,1456.0 460.0,1458.0 462.0" style="fill:none;stroke:#c86cff;stroke-width:2"/>
<polyline points="1490.0 487.0,1487.0 488.0,1485.0 490.0,1483.0 493.0,1481.0 495.0,1479.0 497.0" style="fill:none;stroke:#c86cff;stroke-width:2"/>
<polyline points="1478.0 487.0,1481.0 490.0,1482.0 494.0,1482.0 496.0" style="fill:none;stroke:#c86cff;stroke-width:2"/>
<polyline points="1479.0 538.0,1481.0 536.0,1483.0 535.0,1486.0 534.0" style="fill:none;stroke:#c86cff;stroke-width:2"/>
<polyline points="1480.0 527.0,1482.0 530.0,1483.0 532.0,1484.0 535.0,1485.0 537.0,1486.0 540.0" style="fill:none;stroke:#c86cff;stroke-width:2"/>
<polyline points="1489.0 568.0,1487.0 570.0,1485.0 573.0,1484.0 575.0,1482.0 578.0,1481.0 582.0" style="fill:none;stroke:#c86cff;stroke-width:2"/>
<polyline points="1477.0 573.0,1480.0 576.0,1483.0 580.0,1486.0 582.0" style="fill:none;stroke:#c86cff;stroke-width:2"/>
<polyline points="1500.0 611.0,1503.0 609.0,1505.0 607.0,1509.0 604.0" style="fill:none;stroke:#c86cff;stroke-width:2"/>
<polyline points="1507.0 597.0,1508.0 600.0,1510.0 604.0,1511.0 605.0" style="fill:none;stroke:#c86cff;stroke-width:2"/>
<polyline points="1565.0 594.0,1563.0 596.0,1562.0 598.0,1560.0 600.0,1559.0 602.0,1558.0 603.0" style="fill:none;stroke:#c86cff;stroke-width:2"/>
<polyline points="1556.0 596.0,1558.0 597.0,1561.0 599.0,1563.0 601.0,1566.0 604.0" style="fill:none;stroke:#c86cff;stroke-width:2"/>
<polyline points="1617.0 603.0,1619.0 601.0,1623.0 598.0,1626.0 597.0,1627.0 596.0" style="fill:none;stroke:#c86cff;stroke-width:2"/>
<polyline points="1622.0 593.0,1623.0 596.0,1624.0 598.0,1625.0 602.0,1628.0 606.0,1629.0 607.0" style="fill:none;stroke:#c86cff;stroke-width:2"/>
<polyline points="1678.0 588.0,1676.0 589.0,1675.0 591.0,1673.0 594.0,1670.0 597.0,1669.0 598.0" style="fill:none;stroke:#c86cff;stroke-width:2"/>
<polyline points="1668.0 587.0,1672.0 588.0,1674.0 590.0,1679.0 595.0" style="fill:none;stroke:#c86cff;stroke-width:2"/>
<polyline points="1718.0 601.0,1721.0 599.0,1724.0 598.0,1728.0 596.0,1730.0 595.0" style="fill:none;stroke:#c86cff;stroke-width:2"/>
<polyline points="1726.0 588.0,1727.0 590.0,1728.0 594.0,1730.0 597.0,1732.0 599.0" style="fill:none;stroke:#c86cff;stroke-width:2"/>
<polyline points="1782.0 577.0,1781.0 579.0,1779.0 582.0,1776.0 586.0,1775.0 588.0,1773.0 591.0" style="fill:none;stroke:#c86cff;stroke-width:2"/>
<polyline points="1770.0 578.0,1772.0 580.0,1773.0 582.0,1775.0 584.0,1778.0 588.0,1780.0 590.0" style="fill:none;stroke:#c86cff;stroke-width:2"/>
<polyline points="1706.0 51.0,1705.0 48.0,1703.0 45.0,1700.0 43.0,1696.0 43.0,1693.0 44.0,1687.0 47.0,1683.0 50.0,1680.0 53.0,1670.0 64.0,1668.0 67.0,1666.0 74.0,1666.0 78.0,1667.0 81.0,1669.0 83.0,1678.0 91.0,1681.0 92.0,1689.0 95.0,1693.0 96.0,1696.0 97.0,1704.0 99.0,1708.0 99.0,1712.0 98.0,1715.0 97.0" style="fill:none;stroke:#c86cff;stroke-width:2"/>
<polyline points="1729.0 92.0,1727.0 90.0,1729.0 88.0,1730.0 86.0,1730.0 83.0,1725.0 85.0,1723.0 88.0,1722.0 91.0,1723.0 93.0,1727.0 94.0,1732.0 94.0,1734.0 92.0,1732.0 90.0,1729.0 88.0" style="fill:none;stroke:#ffffff;stroke-width:2"/>
<polyline points="1749.0 88.0,1746.0 85.0,1742.0 83.0,1739.0 86.0,1740.0 89.0,1742.0 90.0,1744.0 92.0,1747.0 92.0,1752.0 91.0,1750.0 89.0" style="fill:none;stroke:#ffffff;stroke-width:2"/>
<polyline points="1761.0 87.0,1761.0 83.0,1760.0 88.0,1761.0 91.0,1762.0 93.0,1765.0 94.0,1767.0 92.0,1768.0 91.0" style="fill:none;stroke:#ffffff;stroke-width:2"/>
<polyline points="1791.0 88.0,1790.0 86.0,1787.0 84.0,1783.0 87.0,1781.0 90.0,1782.0 92.0,1785.0 92.0,1787.0 90.0,1788.0 86.0,1789.0 84.0,1790.0 81.0,1790.0 78.0,1791.0 71.0,1791.0 67.0,1792.0 64.0,1791.0 60.0,1789.0 55.0,1786.0 62.0,1786.0 65.0,1787.0 75.0,1788.0 82.0,1789.0 85.0,1792.0 90.0,1793.0 93.0" style="fill:none;stroke:#ffffff;stroke-width:2"/>
<polyline points="1799.0 93.0,1800.0 90.0,1803.0 92.0,1804.0 94.0,1806.0 96.0" style="fill:none;stroke:#ffffff;stroke-width:2"/>
<polyline points="1805.0 82.0,1804.0 80.0,1804.0 77.0" style="fill:none;stroke:#ffffff;stroke-width:2"/>
<polyline points="1818.0 83.0,1818.0 87.0,1820.0 90.0,1824.0 91.0,1827.0 91.0,1828.0 92.0" style="fill:none;stroke:#ffffff;stroke-width:2"/>
<polyline points="1846.0 89.0,1845.0 85.0,1842.0 85.0,1841.0 87.0,1840.0 90.0,1841.0 92.0,1842.0 95.0,1845.0 96.0,1847.0 94.0,1852.0 97.0,1855.0 97.0,1857.0 95.0,1860.0 90.0,1862.0 86.0,1862.0 83.0,1863.0 80.0,1863.0 76.0,1864.0 69.0,1864.0 65.0,1865.0 62.0,1865.0 58.0,1864.0 55.0,1863.0 59.0,1862.0 62.0,1860.0 73.0,1860.0 76.0,1861.0 90.0,1862.0 93.0" style="fill:none;stroke:#ffffff;stroke-width:2"/>
<polyline points="1852.0 77.0,1856.0 77.0,1859.0 78.0,1865.0 81.0,1867.0 81.0" style="fill:none;stroke:#ffffff;stroke-width:2"/>
<polyline points="1875.0 90.0,1879.0 89.0,1882.0 88.0,1889.0 85.0,1891.0 84.0,1892.0 81.0,1890.0 80.0,1886.0 81.0,1882.0 83.0,1881.0 86.0,1881.0 91.0,1883.0 94.0,1887.0 97.0,1890.0 99.0,1894.0 100.0" style="fill:none;stroke:#ffffff;stroke-width:2"/>
<polyline points="1528.0 264.0,1530.0 262.0,1529.0 259.0,1525.0 260.0,1523.0 261.0,1521.0 263.0,1521.0 266.0,1523.0 268.0,1526.0 268.0,1536.0 267.0,1537.0 265.0,1536.0 262.0,1534.0 260.0,1531.0 258.0,1529.0 257.0" style="fill:none;stroke:#ffffff;stroke-width:2"/>
<polyline points="1455.0 276.0,1457.0 273.0,1456.0 270.0,1452.0 271.0,1451.0 275.0,1453.0 279.0,1455.0 281.0,1458.0 281.0,1465.0 280.0,1467.0 279.0,1468.0 276.0,1466.0 274.0,1464.0 273.0,1461.0 272.0,1459.0 272.0" style="fill:none;stroke:#ffffff;stroke-width:2"/>
<polyline points="1383.0 341.0,1382.0 338.0,1378.0 339.0,1376.0 341.0,1374.0 344.0,1374.0 349.0,1376.0 351.0,1381.0 350.0,1383.0 348.0,1384.0 346.0,1383.0 343.0,1381.0 341.0,1378.0 342.0" style="fill:none;stroke:#ffffff;stroke-width:2"/>
<polyline points="1395.0 449.0,1393.0 446.0,1390.0 445.0,1386.0 447.0,1385.0 450.0,1386.0 454.0,1389.0 456.0,1392.0 457.0,1396.0 455.0,1398.0 453.0,1397.0 449.0,1395.0 447.0,1393.0 446.0,1391.0 445.0" style="fill:none;stroke:#ffffff;stroke-width:2"/>
<polyline points="1668.0 163.0,1670.0 160.0,1671.0 158.0,1673.0 153.0,1674.0 150.0,1675.0 146.0,1675.0 139.0,1674.0 118.0,1674.0 115.0,1675.0 121.0,1675.0 125.0,1677.0 134.0,1678.0 137.0,1682.0 148.0,1684.0 150.0,1686.0 151.0,1690.0 152.0,1694.0 150.0,1695.0 148.0,1698.0 137.0,1699.0 133.0,1699.0 130.0,1700.0 114.0,1702.0 115.0" style="fill:none;stroke:#ffffff;stroke-width:2"/>
<polyline points="1724.0 154.0,1726.0 151.0,1725.0 148.0,1723.0 146.0,1720.0 145.0,1718.0 146.0,1714.0 147.0,1713.0 149.0,1711.0 150.0,1709.0 154.0,1711.0 158.0,1715.0 159.0,1718.0 159.0,1722.0 157.0,1723.0 153.0,1722.0 150.0,1721.0 146.0" style="fill:none;stroke:#ffffff;stroke-width:2"/>
<polyline points="1746.0 150.0,1744.0 147.0,1742.0 146.0,1739.0 147.0,1736.0 149.0,1733.0 153.0,1732.0 156.0,1733.0 159.0,1737.0 160.0,1740.0 159.0,1743.0 157.0,1748.0 152.0,1749.0 150.0,1751.0 147.0,1752.0 144.0,1754.0 136.0,1754.0 132.0,1753.0 115.0,1750.0 114.0,1747.0 120.0,1746.0 123.0,1745.0 127.0,1744.0 135.0,1744.0 138.0,1745.0 147.0,1746.0 149.0,1747.0 153.0,1749.0 155.0,1750.0 156.0" style="fill:none;stroke:#ffffff;stroke-width:2"/>
<polyline points="1761.0 154.0,1765.0 153.0,1768.0 152.0,1774.0 149.0,1777.0 147.0,1777.0 143.0,1775.0 141.0,1771.0 141.0,1766.0 142.0,1764.0 145.0,1762.0 149.0,1762.0 153.0,1763.0 155.0,1765.0 157.0,1769.0 160.0,1772.0 161.0" style="fill:none;stroke:#ffffff;stroke-width:2"/>
<polyline points="1649.0 129.0,1646.0 130.0,1644.0 134.0,1645.0 137.0,1646.0 139.0,1649.0 140.0,1654.0 140.0,1656.0 139.0,1657.0 137.0,1656.0 134.0,1654.0 130.0,1652.0 128.0" style="fill:none;stroke:#ffffff;stroke-width:2"/>
<polyline points="1254.0 165.0,1253.0 162.0,1251.0 163.0,1250.0 165.0,1251.0 168.0,1253.0 170.0,1256.0 169.0,1257.0 166.0,1254.0 163.0,1251.0 162.0,1249.0 163.0,1246.0 167.0,1247.0 169.0,1249.0 171.0,1252.0 171.0,1256.0 170.0,1256.0 167.0,1255.0 165.0,1253.0 164.0,1250.0 165.0,1249.0 167.0,1251.0 170.0,1255.0 171.0,1256.0 168.0,1255.0 165.0,1253.0 164.0,1250.0 163.0,1249.0 166.0,1250.0 168.0,1253.0 167.0,1251.0 164.0,1249.0 162.0" style="fill:none;stroke:#fff338;stroke-width:2"/>
<polyline points="1267.0 303.0,1266.0 301.0,1264.0 298.0,1260.0 299.0,1259.0 301.0,1260.0 304.0,1265.0 303.0,1268.0 301.0,1269.0 298.0,1265.0 296.0,1261.0 296.0,1259.0 297.0,1258.0 299.0,1257.0 303.0,1259.0 305.0,1263.0 305.0,1265.0 304.0,1267.0 302.0,1265.0 299.0,1263.0 297.0,1261.0 298.0,1260.0 300.0,1261.0 302.0,1263.0 304.0,1266.0 304.0,1268.0 302.0,1267.0 299.0,1263.0 297.0" style="fill:none;stroke:#fff338;stroke-width:2"/>
<polyline points="1382.0 346.0,1380.0 345.0,1376.0 346.0,1375.0 350.0,1377.0 352.0,1380.0 352.0,1383.0 349.0,1383.0 345.0,1381.0 343.0,1380.0 341.0,1378.0 340.0,1375.0 341.0,1374.0 343.0,1374.0 347.0,1375.0 349.0,1378.0 351.0,1383.0 350.0,1384.0 347.0,1383.0 345.0,1380.0 342.0,1377.0 341.0,1376.0 344.0,1377.0 347.0,1380.0 349.0,1382.0 347.0,1382.0 344.0,1379.0 344.0,1380.0 347.0,1381.0 348.0" style="fill:none;stroke:#fff338;stroke-width:2"/>
<polyline points="1457.0 280.0,1458.0 277.0,1457.0 275.0,1456.0 272.0,1453.0 271.0,1452.0 273.0,1453.0 276.0,1454.0 278.0,1457.0 280.0,1460.0 280.0,1464.0 277.0,1465.0 274.0,1463.0 271.0,1461.0 269.0,1457.0 270.0,1455.0 272.0,1454.0 274.0,1453.0 277.0,1454.0 280.0,1457.0 282.0,1459.0 281.0,1462.0 279.0,1463.0 277.0,1463.0 273.0,1462.0 271.0,1459.0 272.0,1458.0 274.0,1458.0 277.0,1459.0 279.0,1461.0 280.0,1464.0 279.0,1465.0 276.0,1464.0 273.0,1463.0 271.0,1463.0 269.0" style="fill:none;stroke:#fff338;stroke-width:2"/>
<polyline points="1471.0 221.0,1472.0 218.0,1471.0 215.0,1468.0 219.0,1467.0 222.0,1468.0 225.0,1470.0 227.0,1473.0 226.0,1474.0 223.0,1474.0 220.0,1473.0 218.0,1471.0 216.0,1468.0 216.0,1466.0 219.0,1466.0 223.0,1467.0 226.0,1469.0 228.0,1471.0 227.0,1474.0 224.0,1474.0 220.0,1473.0 217.0,1471.0 215.0,1468.0 221.0,1469.0 223.0" style="fill:none;stroke:#fff338;stroke-width:2"/>
<polyline points="1459.0 152.0,1462.0 153.0,1463.0 150.0,1461.0 149.0,1458.0 151.0,1458.0 155.0,1460.0 157.0,1462.0 158.0,1465.0 159.0,1467.0 157.0,1466.0 155.0,1464.0 152.0,1462.0 150.0,1460.0 151.0,1458.0 154.0,1459.0 157.0,1461.0 159.0,1465.0 159.0,1467.0 157.0,1467.0 154.0,1466.0 152.0,1463.0 151.0,1461.0 152.0,1459.0 154.0,1460.0 158.0,1463.0 159.0,1465.0 157.0,1464.0 155.0,1462.0 156.0,1463.0 158.0" style="fill:none;stroke:#fff338;stroke-width:2"/>
<polyline points="1534.0 267.0,1534.0 263.0,1532.0 262.0,1528.0 261.0,1523.0 263.0,1521.0 264.0,1519.0 266.0,1521.0 271.0,1527.0 272.0,1530.0 271.0,1532.0 270.0,1535.0 268.0,1535.0 264.0,1533.0 263.0,1532.0 261.0,1530.0 260.0,1526.0 260.0,1524.0 263.0,1524.0 267.0,1527.0 269.0,1530.0 270.0,1534.0 269.0,1536.0 267.0,1537.0 264.0,1536.0 262.0,1534.0 260.0,1532.0 259.0,1528.0 260.0,1526.0 263.0,1525.0 268.0,1528.0 269.0,1530.0 268.0,1529.0 266.0,1526.0 264.0,1527.0 267.0" style="fill:none;stroke:#fff338;stroke-width:2"/>
<polyline points="1387.0 450.0,1386.0 447.0,1384.0 449.0,1385.0 453.0,1386.0 455.0,1390.0 455.0,1392.0 454.0,1394.0 452.0,1395.0 449.0,1393.0 447.0,1389.0 447.0,1387.0 448.0,1386.0 451.0,1386.0 456.0,1389.0 457.0,1394.0 455.0,1396.0 454.0,1398.0 452.0,1398.0 448.0,1396.0 446.0,1393.0 445.0,1391.0 446.0,1389.0 448.0,1388.0 452.0,1390.0 454.0,1393.0 452.0,1392.0 451.0" style="fill:none;stroke:#fff338;stroke-width:2"/>
<polyline points="1495.0 444.0,1492.0 442.0,1490.0 441.0,1487.0 443.0,1485.0 447.0,1486.0 452.0,1488.0 454.0,1490.0 455.0,1494.0 454.0,1496.0 451.0,1495.0 449.0,1494.0 446.0,1492.0 444.0,1489.0 443.0,1488.0 447.0,1489.0 451.0,1491.0 453.0,1495.0 452.0,1495.0 448.0,1494.0 445.0,1492.0 443.0,1490.0 448.0,1491.0 450.0,1494.0 451.0,1496.0 450.0,1495.0 447.0,1493.0 445.0,1492.0 448.0,1493.0 450.0,1495.0 450.0" style="fill:none;stroke:#fff338;stroke-width:2"/>
<polyline points="1719.0 448.0,1721.0 446.0,1721.0 443.0,1719.0 441.0,1715.0 442.0,1712.0 443.0,1710.0 445.0,1709.0 448.0,1711.0 452.0,1714.0 452.0,1719.0 451.0,1721.0 450.0,1722.0 448.0,1721.0 445.0,1719.0 443.0,1716.0 442.0,1714.0 445.0,1715.0 449.0,1719.0 451.0,1724.0 448.0,1723.0 444.0,1720.0 443.0,1719.0 446.0,1720.0 449.0,1724.0 448.0,1722.0 446.0" style="fill:none;stroke:#fff338;stroke-width:2"/>
<polyline points="1248.0 171.0,1245.0 172.0,1244.0 174.0,1242.0 177.0,1241.0 178.0" style="fill:none;stroke:#c86cff;stroke-width:2"/>
<polyline points="1242.0 169.0,1242.0 172.0,1243.0 174.0,1245.0 179.0,1248.0 182.0" style="fill:none;stroke:#c86cff;stroke-width:2"/>
<polyline points="1250.0 73.0,1249.0 72.0" style="fill:none;stroke:#ff5959;stroke-width:2"/>
<polyline points="1249.0 75.0,1249.0 71.0,1248.0 81.0,1248.0 86.0,1247.0 103.0,1247.0 107.0,1248.0 114.0,1248.0 118.0,1249.0 120.0,1249.0 125.0,1250.0 128.0,1250.0 130.0,1251.0 143.0,1251.0 147.0,1251.0 159.0" style="fill:none;stroke:#ff5959;stroke-width:2"/>
<polyline points="1263.0 169.0,1265.0 170.0,1269.0 169.0,1274.0 169.0,1277.0 168.0,1281.0 168.0,1285.0 167.0,1289.0 167.0,1298.0 166.0,1306.0 166.0,1321.0 165.0,1326.0 165.0,1339.0 164.0,1342.0 164.0,1355.0 163.0,1360.0 163.0,1369.0 162.0,1372.0 162.0,1377.0 161.0,1381.0 161.0,1386.0 160.0,1393.0 160.0,1414.0 159.0,1417.0 159.0,1419.0 158.0,1424.0 158.0,1444.0 157.0,1446.0 157.0" style="fill:none;stroke:#ff5959;stroke-width:2"/>
<polyline points="1251.0 76.0,1250.0 73.0,1249.0 71.0,1248.0 75.0,1247.0 78.0,1247.0 82.0,1248.0 94.0,1248.0 97.0,1249.0 102.0,1249.0 105.0,1250.0 125.0,1250.0 130.0,1251.0 133.0,1251.0 138.0,1252.0 154.0" style="fill:none;stroke:#ff5959;stroke-width:2"/>
<polyline points="1263.0 171.0,1267.0 171.0,1278.0 172.0,1281.0 172.0,1296.0 171.0,1301.0 171.0,1310.0 170.0,1313.0 170.0,1319.0 169.0,1323.0 169.0,1325.0 168.0,1328.0 168.0,1331.0 167.0,1336.0 166.0,1339.0 166.0,1341.0 165.0,1347.0 164.0,1350.0 164.0,1355.0 163.0,1359.0 163.0,1362.0 162.0,1365.0 162.0,1375.0 161.0,1378.0 161.0,1387.0 160.0,1391.0 160.0,1397.0 159.0,1401.0 159.0,1406.0 158.0,1410.0 158.0,1422.0 157.0,1426.0 157.0,1437.0 156.0" style="fill:none;stroke:#ff5959;stroke-width:2"/>
<polyline points="1462.0 171.0,1462.0 167.0,1461.0 164.0,1459.0 169.0,1460.0 173.0,1460.0 178.0,1461.0 182.0,1462.0 187.0,1462.0 191.0,1463.0 193.0,1463.0 197.0,1464.0 201.0,1464.0 205.0,1465.0 208.0,1465.0 212.0,1467.0 210.0" style="fill:none;stroke:#ff5959;stroke-width:2"/>
<polyline points="1446.0 281.0,1445.0 284.0,1443.0 286.0,1442.0 287.0" style="fill:none;stroke:#ff5959;stroke-width:2"/>
<polyline points="1450.0 278.0,1452.0 276.0,1449.0 277.0,1447.0 279.0,1445.0 280.0,1443.0 282.0,1439.0 285.0,1434.0 289.0,1431.0 291.0,1428.0 294.0,1424.0 297.0,1422.0 299.0,1419.0 301.0,1418.0 303.0,1416.0 305.0,1413.0 307.0,1412.0 309.0,1410.0 311.0,1406.0 316.0,1404.0 318.0,1402.0 319.0,1401.0 321.0,1399.0 323.0,1387.0 334.0,1385.0 336.0,1384.0 337.0" style="fill:none;stroke:#ff5959;stroke-width:2"/>
<polyline points="1384.0 359.0,1383.0 356.0,1383.0 360.0,1384.0 393.0,1384.0 399.0,1385.0 409.0,1385.0 413.0,1386.0 415.0,1386.0 419.0,1387.0 425.0,1387.0 429.0,1388.0 432.0,1388.0 436.0,1389.0 440.0,1389.0 444.0" style="fill:none;stroke:#ff5959;stroke-width:2"/>
<polyline points="1400.0 452.0,1397.0 450.0,1399.0 448.0,1403.0 448.0,1413.0 447.0,1416.0 447.0,1435.0 446.0,1438.0 446.0,1448.0 445.0,1455.0 445.0,1481.0 444.0,1486.0 444.0,1489.0 443.0,1490.0 444.0" style="fill:none;stroke:#ff5959;stroke-width:2"/>
<polyline points="1497.0 460.0,1497.0 456.0,1498.0 453.0,1497.0 456.0,1497.0 462.0,1498.0 480.0,1498.0 486.0,1499.0 495.0,1499.0 500.0,1498.0 528.0,1498.0 532.0,1497.0 536.0,1497.0 539.0,1496.0 555.0,1496.0 559.0,1495.0 569.0,1495.0 573.0,1496.0 576.0" style="fill:none;stroke:#ff5959;stroke-width:2"/>
<polyline points="1497.0 579.0,1495.0 581.0,1497.0 582.0,1500.0 583.0,1505.0 584.0,1510.0 584.0,1516.0 585.0,1520.0 585.0,1547.0 584.0,1550.0 584.0,1564.0 583.0,1570.0 583.0,1581.0 582.0,1584.0 582.0,1593.0 583.0,1597.0 583.0,1607.0 583.0" style="fill:none;stroke:#ff5959;stroke-width:2"/>
<polyline points="1614.0 610.0,1612.0 608.0,1608.0 603.0,1608.0 599.0,1607.0 601.0,1606.0 605.0,1606.0 608.0,1605.0 610.0,1605.0 613.0,1606.0 620.0,1606.0 623.0,1605.0 632.0,1604.0 637.0,1604.0 640.0,1603.0 643.0,1603.0 647.0,1602.0 650.0,1602.0 654.0,1601.0 659.0,1602.0 658.0" style="fill:none;stroke:#ff5959;stroke-width:2"/>
<polyline points="1627.0 591.0,1618.0 590.0,1622.0 590.0,1626.0 589.0,1630.0 589.0,1633.0 588.0,1637.0 588.0,1675.0 587.0,1681.0 587.0,1692.0 586.0,1698.0 586.0,1718.0 585.0,1721.0 585.0,1748.0 586.0,1751.0 586.0,1797.0 586.0" style="fill:none;stroke:#ff5959;stroke-width:2"/>
<polyline points="1239.0 75.0,1241.0 74.0,1244.0 71.0,1247.0 69.0,1251.0 66.0,1253.0 65.0,1250.0 67.0,1248.0 69.0,1244.0 72.0,1241.0 74.0,1238.0 77.0,1240.0 78.0,1243.0 76.0,1247.0 73.0,1250.0 71.0,1252.0 69.0,1255.0 66.0" style="fill:none;stroke:#ff9500;stroke-width:2"/>
<polyline points="1238.0 63.0,1240.0 64.0,1244.0 67.0,1246.0 68.0,1250.0 71.0,1253.0 72.0,1255.0 73.0,1252.0 72.0,1249.0 69.0,1246.0 68.0,1243.0 66.0,1244.0 68.0,1247.0 71.0,1250.0 72.0,1251.0 69.0,1249.0 68.0,1246.0 66.0,1244.0 65.0,1248.0 65.0,1251.0 66.0" style="fill:none;stroke:#ff9500;stroke-width:2"/>
<polyline points="1213.0 43.0,1211.0 42.0,1207.0 42.0,1204.0 43.0,1202.0 45.0,1203.0 47.0,1206.0 49.0,1211.0 51.0,1214.0 53.0,1216.0 55.0,1220.0 57.0,1221.0 59.0,1224.0 63.0,1223.0 68.0,1221.0 70.0,1217.0 73.0,1211.0 75.0,1203.0 76.0,1200.0 76.0,1196.0 75.0,1193.0 75.0,1191.0 74.0" style="fill:none;stroke:#ff9500;stroke-width:2"/>
<polyline points="1812.0 572.0,1811.0 574.0,1809.0 577.0,1806.0 579.0,1805.0 581.0,1803.0 584.0,1801.0 586.0,1798.0 591.0,1800.0 589.0,1806.0 582.0,1808.0 580.0,1809.0 578.0,1807.0 579.0,1805.0 581.0,1802.0 585.0,1801.0 588.0,1801.0 590.0" style="fill:none;stroke:#ff9500;stroke-width:2"/>
<polyline points="1800.0 570.0,1803.0 575.0,1804.0 579.0,1806.0 582.0,1808.0 587.0,1809.0 589.0,1810.0 592.0,1812.0 596.0,1811.0 592.0,1810.0 589.0,1808.0 584.0,1807.0 579.0,1805.0 576.0,1807.0 580.0,1808.0 583.0,1810.0 586.0,1811.0 588.0,1812.0 592.0,1813.0 594.0,1814.0 595.0" style="fill:none;stroke:#ff9500;stroke-width:2"/>
<polyline points="1854.0 555.0,1851.0 554.0,1849.0 555.0,1838.0 562.0,1835.0 564.0,1832.0 567.0,1831.0 569.0,1829.0 572.0,1828.0 574.0,1828.0 577.0,1829.0 580.0,1830.0 582.0,1833.0 584.0,1835.0 585.0,1841.0 586.0,1844.0 585.0,1848.0 584.0" style="fill:none;stroke:#ff9500;stroke-width:2"/>
<polyline points="1829.0 571.0,1834.0 571.0,1842.0 570.0,1846.0 570.0,1849.0 571.0" style="fill:none;stroke:#ff9500;stroke-width:2"/>
<polyline points="1684.0 179.0,1684.0 183.0,1685.0 199.0,1687.0 198.0" style="fill:none;stroke:#ff5959;stroke-width:2"/>
<polyline points="1669.0 173.0,1676.0 172.0,1679.0 172.0,1685.0 171.0,1689.0 171.0,1700.0 172.0" style="fill:none;stroke:#ff5959;stroke-width:2"/>
<polyline points="1672.0 204.0,1675.0 203.0,1679.0 202.0,1684.0 202.0,1686.0 201.0,1690.0 201.0,1692.0 201.0" style="fill:none;stroke:#ff5959;stroke-width:2"/>
<polyline points="1694.0 194.0,1695.0 196.0,1698.0 201.0,1701.0 200.0,1703.0 197.0,1704.0 194.0,1706.0 197.0,1707.0 199.0,1709.0 203.0" style="fill:none;stroke:#ffffff;stroke-width:2"/>
<polyline points="1722.0 198.0,1721.0 201.0,1722.0 204.0" style="fill:none;stroke:#ffffff;stroke-width:2"/>
<polyline points="1717.0 188.0,1719.0 188.0" style="fill:none;stroke:#ffffff;stroke-width:2"/>
<polyline points="1733.0 179.0,1733.0 176.0,1732.0 186.0,1732.0 189.0,1733.0 194.0,1733.0 198.0,1734.0 202.0" style="fill:none;stroke:#ffffff;stroke-width:2"/>
<polyline points="1728.0 192.0,1734.0 192.0,1736.0 193.0" style="fill:none;stroke:#ffffff;stroke-width:2"/>
<polyline points="1749.0 196.0,1750.0 200.0" style="fill:none;stroke:#ffffff;stroke-width:2"/>
<polyline points="1745.0 186.0,1747.0 186.0" style="fill:none;stroke:#ffffff;stroke-width:2"/>
<polyline points="1766.0 190.0,1760.0 191.0,1758.0 194.0,1758.0 197.0,1759.0 199.0,1762.0 200.0,1766.0 197.0,1767.0 194.0,1766.0 197.0,1767.0 199.0" style="fill:none;stroke:#ffffff;stroke-width:2"/>
<polyline points="1774.0 167.0,1773.0 170.0,1773.0 175.0,1774.0 181.0,1774.0 184.0,1775.0 192.0,1775.0 195.0,1777.0 198.0,1778.0 199.0" style="fill:none;stroke:#ffffff;stroke-width:2"/>
<polyline points="1795.0 167.0,1795.0 171.0,1796.0 184.0,1796.0 188.0,1795.0 191.0,1794.0 187.0,1793.0 182.0,1793.0 179.0,1794.0 165.0,1797.0 162.0,1799.0 161.0,1802.0 162.0,1804.0 163.0,1806.0 165.0,1807.0 168.0,1809.0 172.0,1809.0 176.0,1808.0 179.0,1807.0 181.0,1804.0 183.0,1803.0 184.0" style="fill:none;stroke:#ffffff;stroke-width:2"/>
<polyline points="1810.0 186.0,1810.0 190.0,1811.0 193.0,1811.0 197.0,1812.0 193.0,1812.0 189.0,1813.0 187.0,1814.0 185.0" style="fill:none;stroke:#ffffff;stroke-width:2"/>
<polyline points="1797.0 184.0,1801.0 183.0,1804.0 182.0" style="fill:none;stroke:#ffffff;stroke-width:2"/>
<polyline points="1823.0 188.0,1820.0 187.0,1818.0 188.0,1817.0 190.0,1818.0 192.0,1821.0 194.0,1825.0 194.0,1827.0 192.0,1827.0 188.0" style="fill:none;stroke:#ffffff;stroke-width:2"/>
<polyline points="1832.0 188.0,1833.0 192.0,1834.0 194.0,1836.0 200.0,1838.0 208.0,1837.0 211.0,1836.0 213.0,1834.0 214.0,1831.0 212.0,1830.0 209.0,1829.0 206.0" style="fill:none;stroke:#ffffff;stroke-width:2"/>
<polyline points="1843.0 190.0,1846.0 189.0,1848.0 188.0,1851.0 187.0,1849.0 184.0,1846.0 185.0,1844.0 186.0,1842.0 188.0,1841.0 192.0,1844.0 194.0" style="fill:none;stroke:#ffffff;stroke-width:2"/>
<polyline points="1862.0 180.0,1860.0 183.0,1861.0 185.0,1862.0 189.0,1863.0 191.0,1865.0 193.0,1867.0 195.0" style="fill:none;stroke:#ffffff;stroke-width:2"/>
<polyline points="1867.0 182.0,1864.0 181.0,1863.0 183.0,1861.0 184.0,1859.0 186.0,1859.0 190.0,1860.0 192.0,1862.0 194.0,1865.0 194.0,1869.0 193.0,1871.0 192.0,1873.0 191.0" style="fill:none;stroke:#ffffff;stroke-width:2"/>
<polyline points="1876.0 157.0,1875.0 160.0,1875.0 163.0,1876.0 179.0,1876.0 184.0,1877.0 186.0,1877.0 191.0,1878.0 195.0" style="fill:none;stroke:#ffffff;stroke-width:2"/>
<polyline points="1868.0 177.0,1871.0 176.0,1875.0 176.0,1877.0 177.0" style="fill:none;stroke:#ffffff;stroke-width:2"/>
<polyline points="1890.0 184.0,1890.0 188.0,1890.0 190.0" style="fill:none;stroke:#ffffff;stroke-width:2"/>
<polyline points="1890.0 176.0,1891.0 175.0" style="fill:none;stroke:#ffffff;stroke-width:2"/>
<polyline points="1904.0 182.0,1901.0 181.0,1899.0 183.0,1899.0 186.0,1900.0 189.0,1902.0 191.0,1905.0 190.0,1906.0 187.0,1906.0 184.0,1905.0 183.0" style="fill:none;stroke:#ffffff;stroke-width:2"/>
<polyline points="1915.0 179.0,1915.0 184.0,1916.0 186.0,1920.0 186.0,1929.0 187.0,1931.0 189.0,1932.0 192.0,1932.0 194.0" style="fill:none;stroke:#ffffff;stroke-width:2"/>
<polyline points="1256.0 177.0,1256.0 181.0,1257.0 197.0,1257.0 201.0,1258.0 207.0,1258.0 212.0,1259.0 218.0,1259.0 222.0,1260.0 227.0,1260.0 232.0,1261.0 234.0,1261.0 239.0,1262.0 241.0,1262.0 244.0,1263.0 247.0,1264.0 253.0,1264.0 257.0,1265.0 260.0,1265.0 264.0,1266.0 268.0,1267.0 270.0,1267.0 274.0,1268.0 277.0,1269.0 279.0,1269.0 283.0,1268.0 284.0" style="fill:none;stroke:#5784ff;stroke-width:2"/>
<polyline points="1465.0 224.0,1462.0 223.0,1458.0 225.0,1455.0 227.0,1453.0 229.0,1450.0 233.0,1449.0 235.0,1445.0 244.0,1445.0 247.0,1444.0 249.0,1444.0 253.0,1445.0 255.0,1445.0 258.0,1446.0 260.0,1450.0 267.0,1451.0 269.0,1453.0 271.0,1456.0 272.0,1457.0 271.0" style="fill:none;stroke:#5784ff;stroke-width:2"/>
<polyline points="1487.0 216.0,1485.0 214.0,1489.0 214.0,1491.0 215.0,1495.0 216.0,1498.0 217.0,1503.0 218.0,1505.0 219.0,1510.0 221.0,1512.0 222.0,1519.0 225.0,1522.0 226.0,1525.0 228.0,1527.0 230.0,1529.0 231.0,1531.0 233.0,1532.0 235.0,1534.0 237.0,1535.0 239.0,1537.0 241.0,1539.0 245.0,1540.0 248.0,1541.0 249.0" style="fill:none;stroke:#5784ff;stroke-width:2"/>
<polyline points="1467.0 282.0,1468.0 285.0,1470.0 287.0,1475.0 290.0,1477.0 292.0,1482.0 293.0,1485.0 293.0,1499.0 292.0,1502.0 292.0,1505.0 291.0,1509.0 290.0,1512.0 289.0,1516.0 287.0,1519.0 286.0,1521.0 285.0,1524.0 283.0,1528.0 280.0,1529.0 277.0,1530.0 276.0" style="fill:none;stroke:#5784ff;stroke-width:2"/>
<polyline points="1280.0 495.0,1282.0 494.0,1286.0 493.0,1289.0 492.0,1293.0 490.0,1296.0 489.0,1303.0 487.0,1306.0 486.0,1317.0 482.0,1320.0 481.0,1385.0 459.0" style="fill:none;stroke:#5784ff;stroke-width:2"/>
<polyline points="1505.0 447.0,1502.0 446.0,1505.0 447.0,1509.0 447.0,1515.0 448.0,1522.0 448.0,1525.0 447.0,1528.0 447.0,1539.0 446.0,1547.0 445.0,1550.0 445.0,1562.0 444.0,1565.0 444.0,1574.0 443.0,1577.0 443.0,1589.0 442.0,1592.0 442.0,1640.0 443.0,1644.0 443.0,1651.0 444.0,1655.0 444.0,1668.0 445.0,1671.0 445.0,1695.0 446.0,1699.0 446.0,1702.0 445.0,1704.0 445.0" style="fill:none;stroke:#5784ff;stroke-width:2"/>
<polyline points="1279.0 496.0,1281.0 494.0,1288.0 492.0,1291.0 491.0,1298.0 489.0,1304.0 487.0,1313.0 483.0,1316.0 482.0,1341.0 473.0,1344.0 472.0,1358.0 467.0,1361.0 466.0,1366.0 464.0,1370.0 463.0,1373.0 462.0,1380.0 459.0,1382.0 459.0" style="fill:none;stroke:#5784ff;stroke-width:2"/>
<polyline points="1285.0 492.0,1280.0 493.0,1277.0 495.0,1275.0 496.0,1279.0 496.0,1281.0 495.0,1288.0 493.0,1291.0 492.0,1298.0 489.0,1302.0 488.0,1305.0 486.0,1309.0 485.0,1316.0 483.0,1319.0 481.0,1322.0 480.0,1329.0 478.0,1332.0 477.0,1339.0 475.0,1345.0 473.0,1362.0 468.0,1368.0 466.0,1370.0 465.0,1373.0 464.0,1375.0 463.0,1379.0 462.0,1382.0 460.0,1385.0 459.0" style="fill:none;stroke:#5784ff;stroke-width:2"/>
<polyline points="1410.0 33.0,1409.0 30.0,1406.0 29.0,1403.0 29.0,1396.0 30.0,1390.0 32.0,1388.0 34.0,1380.0 43.0,1379.0 45.0,1377.0 50.0,1377.0 53.0,1379.0 58.0,1381.0 60.0,1389.0 64.0,1392.0 65.0,1395.0 65.0,1406.0 64.0,1410.0 63.0,1412.0 62.0" style="fill:none;stroke:#5784ff;stroke-width:2"/>
<polyline points="1417.0 52.0,1415.0 50.0,1411.0 52.0,1410.0 54.0,1410.0 57.0,1411.0 59.0,1414.0 60.0,1417.0 60.0,1420.0 58.0,1420.0 54.0,1418.0 52.0,1415.0 51.0" style="fill:none;stroke:#ffffff;stroke-width:2"/>
<polyline points="1425.0 51.0,1425.0 54.0,1426.0 56.0,1427.0 60.0,1429.0 58.0,1431.0 55.0,1434.0 57.0,1434.0 59.0" style="fill:none;stroke:#ffffff;stroke-width:2"/>
<polyline points="1440.0 44.0,1439.0 47.0,1439.0 50.0,1440.0 53.0,1440.0 57.0,1443.0 57.0,1445.0 55.0,1446.0 58.0" style="fill:none;stroke:#ffffff;stroke-width:2"/>
<polyline points="1451.0 58.0,1455.0 56.0,1457.0 54.0,1459.0 53.0,1457.0 51.0,1454.0 52.0,1452.0 54.0,1452.0 58.0,1454.0 59.0" style="fill:none;stroke:#ffffff;stroke-width:2"/>
<polyline points="1466.0 53.0,1463.0 52.0,1461.0 55.0,1460.0 58.0,1463.0 59.0,1467.0 59.0,1469.0 58.0,1471.0 56.0,1473.0 55.0,1475.0 53.0,1476.0 51.0,1478.0 48.0,1479.0 44.0,1479.0 38.0,1478.0 32.0,1477.0 27.0,1476.0 25.0,1473.0 27.0,1473.0 31.0,1474.0 43.0,1475.0 49.0,1477.0 53.0" style="fill:none;stroke:#ffffff;stroke-width:2"/>
<polyline points="1469.0 50.0,1473.0 50.0,1478.0 49.0,1480.0 49.0" style="fill:none;stroke:#ffffff;stroke-width:2"/>
<polyline points="1493.0 51.0,1494.0 49.0,1494.0 45.0,1490.0 45.0,1488.0 47.0,1486.0 48.0,1486.0 52.0,1488.0 54.0,1489.0 55.0" style="fill:none;stroke:#ffffff;stroke-width:2"/>
<polyline points="1507.0 50.0,1505.0 48.0,1502.0 49.0,1501.0 51.0,1500.0 54.0,1502.0 56.0,1504.0 55.0,1507.0 53.0,1509.0 49.0,1510.0 45.0,1510.0 41.0,1509.0 32.0,1508.0 28.0,1505.0 28.0,1504.0 31.0,1503.0 35.0,1503.0 39.0,1504.0 44.0,1505.0 47.0,1507.0 51.0" style="fill:none;stroke:#ffffff;stroke-width:2"/>
<polyline points="1542.0 35.0,1541.0 33.0,1539.0 31.0,1536.0 31.0,1534.0 32.0,1530.0 35.0,1528.0 37.0,1525.0 43.0,1524.0 47.0,1524.0 52.0,1525.0 56.0,1529.0 59.0,1532.0 60.0,1535.0 60.0,1541.0 59.0,1544.0 58.0" style="fill:none;stroke:#ffffff;stroke-width:2"/>
<polyline points="1524.0 47.0,1528.0 47.0,1531.0 46.0,1534.0 46.0,1539.0 46.0" style="fill:none;stroke:#ffffff;stroke-width:2"/>
<polyline points="1554.0 50.0,1551.0 51.0,1549.0 52.0,1547.0 54.0,1546.0 56.0,1547.0 58.0,1550.0 59.0,1552.0 58.0,1555.0 56.0,1557.0 54.0,1558.0 51.0,1559.0 46.0,1558.0 39.0,1558.0 36.0,1557.0 34.0,1556.0 31.0,1554.0 32.0,1553.0 37.0,1552.0 40.0,1552.0 45.0,1553.0 47.0,1555.0 52.0,1557.0 54.0" style="fill:none;stroke:#ffffff;stroke-width:2"/>
<polyline points="1573.0 54.0,1572.0 51.0,1570.0 49.0,1566.0 54.0,1566.0 58.0,1567.0 60.0,1571.0 60.0,1573.0 59.0,1575.0 63.0,1576.0 66.0,1577.0 70.0,1576.0 73.0,1576.0 76.0,1574.0 78.0,1573.0 80.0,1568.0 80.0,1564.0 76.0" style="fill:none;stroke:#ffffff;stroke-width:2"/>
<polyline points="1583.0 56.0,1586.0 54.0,1588.0 53.0,1591.0 51.0,1590.0 48.0,1588.0 47.0,1585.0 48.0,1583.0 50.0,1584.0 52.0,1586.0 55.0,1590.0 56.0,1591.0 57.0" style="fill:none;stroke:#ffffff;stroke-width:2"/>
<polyline points="1606.0 48.0,1604.0 45.0,1600.0 45.0,1599.0 48.0,1600.0 51.0,1602.0 53.0,1606.0 56.0,1607.0 58.0,1606.0 61.0,1604.0 62.0" style="fill:none;stroke:#ffffff;stroke-width:2"/>
<polyline points="1617.0 578.0,1618.0 581.0,1617.0 578.0,1616.0 576.0,1615.0 572.0,1614.0 570.0,1614.0 566.0,1615.0 561.0,1617.0 560.0,1621.0 559.0,1624.0 558.0,1627.0 558.0,1641.0 557.0,1649.0 557.0,1652.0 556.0,1657.0 556.0,1668.0 555.0,1672.0 555.0,1696.0 554.0,1700.0 554.0,1718.0 553.0,1726.0 553.0,1728.0 552.0,1731.0 552.0,1742.0 551.0,1745.0 551.0,1750.0 550.0,1753.0 550.0,1762.0 549.0,1768.0 548.0,1775.0 547.0,1778.0 546.0,1782.0 545.0,1788.0 543.0,1790.0 541.0,1792.0 537.0,1794.0 534.0,1795.0 532.0,1798.0 527.0,1800.0 524.0,1801.0 521.0,1803.0 516.0,1804.0 512.0,1804.0 508.0,1805.0 506.0,1805.0 502.0,1806.0 494.0,1806.0 490.0,1807.0 487.0,1808.0 485.0,1809.0 481.0,1809.0 477.0,1810.0 474.0,1810.0 470.0,1811.0 467.0,1811.0 463.0,1810.0 450.0,1809.0 445.0,1809.0 441.0,1808.0 437.0,1808.0 433.0,1809.0 416.0,1809.0 412.0,1810.0 409.0,1810.0 405.0,1811.0 402.0,1812.0 400.0,1812.0 397.0,1813.0 393.0,1813.0 389.0,1812.0 367.0,1812.0 363.0,1811.0 359.0,1811.0 355.0,1811.0 349.0" style="fill:none;stroke:#5784ff;stroke-width:2"/>
<polyline points="1815.0 334.0,1816.0 332.0,1816.0 328.0,1813.0 327.0,1811.0 329.0,1810.0 331.0,1808.0 334.0,1809.0 337.0,1812.0 339.0,1815.0 340.0,1817.0 338.0,1818.0 335.0,1817.0 332.0,1816.0 327.0,1814.0 325.0" style="fill:none;stroke:#ffffff;stroke-width:2"/>
<polyline points="1612.0 581.0,1610.0 579.0,1606.0 580.0,1602.0 583.0,1601.0 586.0,1602.0 589.0,1604.0 590.0,1607.0 591.0,1610.0 591.0,1613.0 590.0,1615.0 588.0,1616.0 585.0,1615.0 583.0,1614.0 580.0,1612.0 578.0" style="fill:none;stroke:#ffffff;stroke-width:2"/>
<polyline points="1816.0 332.0,1816.0 328.0,1813.0 329.0,1811.0 332.0,1810.0 335.0,1813.0 336.0,1813.0 332.0,1811.0 330.0,1808.0 331.0,1806.0 332.0,1805.0 335.0,1807.0 337.0,1812.0 337.0,1814.0 335.0,1814.0 332.0,1812.0 330.0,1810.0 331.0,1809.0 333.0,1810.0 335.0,1813.0 337.0,1816.0 336.0,1817.0 333.0,1815.0 331.0,1811.0 331.0,1810.0 333.0,1809.0 336.0,1811.0 338.0,1814.0 339.0,1818.0 337.0,1818.0 333.0,1816.0 331.0,1813.0 330.0,1811.0 331.0,1809.0 334.0,1810.0 337.0,1812.0 338.0,1815.0 337.0,1817.0 336.0,1818.0 334.0,1818.0 330.0,1815.0 327.0,1812.0 327.0,1810.0 329.0,1807.0 335.0,1808.0 337.0,1811.0 338.0,1815.0 337.0,1817.0 335.0,1817.0 332.0,1816.0 330.0,1814.0 328.0,1810.0 329.0,1810.0 333.0,1812.0 334.0" style="fill:none;stroke:#fff338;stroke-width:2"/>
<polyline points="1605.0 585.0,1608.0 584.0,1610.0 582.0,1608.0 580.0,1606.0 581.0,1604.0 584.0,1605.0 589.0,1609.0 590.0,1611.0 589.0,1613.0 587.0,1613.0 584.0,1612.0 582.0,1610.0 579.0,1607.0 579.0,1605.0 582.0,1604.0 585.0,1605.0 587.0,1607.0 589.0,1611.0 589.0,1614.0 587.0,1616.0 585.0,1616.0 582.0,1614.0 579.0,1612.0 578.0,1609.0 580.0,1608.0 582.0,1607.0 587.0,1610.0 588.0,1613.0 585.0,1611.0 583.0,1606.0 580.0,1604.0 583.0,1602.0 587.0,1604.0 590.0,1607.0 591.0,1611.0 590.0,1612.0 586.0,1610.0 583.0,1608.0 581.0,1604.0 582.0,1603.0 584.0,1603.0 588.0,1604.0 590.0,1607.0 591.0,1611.0 590.0,1613.0 587.0,1611.0 583.0,1608.0 581.0,1605.0 582.0,1603.0 586.0,1605.0 588.0,1608.0 589.0,1611.0 588.0" style="fill:none;stroke:#fff338;stroke-width:2"/>
<polyline points="1263.0 68.0,1262.0 71.0,1262.0 75.0,1261.0 78.0,1261.0 83.0,1262.0 100.0,1262.0 104.0,1263.0 144.0,1263.0 148.0,1264.0 151.0,1265.0 156.0,1267.0 158.0,1270.0 159.0,1274.0 159.0,1285.0 158.0,1289.0 157.0,1292.0 157.0,1294.0 156.0,1298.0 155.0,1300.0 154.0,1304.0 154.0,1307.0 153.0,1309.0 152.0,1313.0 151.0,1316.0 151.0,1319.0 150.0,1323.0 150.0,1328.0 149.0,1332.0 148.0,1338.0 147.0,1342.0 147.0,1346.0 146.0,1350.0 146.0,1355.0 145.0,1360.0 145.0,1364.0 144.0,1369.0 144.0,1385.0 143.0,1388.0 142.0,1392.0 142.0,1395.0 141.0,1399.0 141.0,1408.0 140.0,1412.0 140.0,1427.0 141.0,1431.0 141.0,1433.0 142.0,1437.0 142.0,1445.0 141.0,1448.0 141.0,1459.0 140.0,1462.0 139.0,1466.0 139.0,1471.0 140.0,1474.0 141.0,1476.0 143.0,1477.0 146.0,1478.0 151.0,1478.0 155.0,1479.0 158.0,1479.0 162.0,1480.0 165.0,1481.0 169.0,1482.0 172.0,1483.0 176.0,1484.0 182.0,1485.0 185.0,1485.0 188.0,1486.0 192.0,1486.0 195.0,1485.0 226.0,1484.0 229.0,1482.0 231.0,1479.0 232.0,1475.0 234.0,1472.0 236.0,1468.0 239.0,1465.0 241.0,1463.0 243.0,1462.0 245.0,1461.0 248.0,1462.0 251.0,1462.0 255.0,1463.0 257.0,1465.0 259.0,1466.0 262.0,1467.0 266.0,1468.0 268.0,1470.0 270.0,1471.0 274.0,1470.0 277.0,1468.0 279.0,1463.0 283.0,1461.0 285.0,1458.0 287.0,1453.0 290.0,1451.0 291.0,1448.0 293.0,1446.0 295.0,1444.0 296.0,1442.0 298.0,1440.0 299.0,1438.0 301.0,1435.0 303.0,1433.0 304.0,1430.0 306.0,1428.0 308.0,1419.0 316.0,1417.0 318.0,1410.0 326.0,1409.0 329.0,1407.0 331.0,1405.0 334.0,1404.0 336.0,1402.0 342.0,1400.0 347.0,1400.0 351.0,1399.0 353.0,1399.0 357.0,1398.0 395.0,1398.0 398.0,1399.0 418.0,1399.0 422.0,1400.0 425.0,1400.0 429.0,1404.0 429.0,1406.0 428.0,1409.0 427.0,1412.0 425.0,1415.0 424.0,1418.0 422.0,1421.0 421.0,1423.0 420.0" style="fill:none;stroke:#61ff6f;stroke-width:2"/>
<polyline points="1407.0 429.0,1405.0 427.0,1408.0 426.0,1413.0 426.0,1426.0 427.0,1431.0 427.0,1445.0 428.0,1449.0 428.0,1461.0 429.0,1465.0 429.0,1471.0 428.0,1475.0 428.0,1481.0 428.0" style="fill:none;stroke:#61ff6f;stroke-width:2"/>
<polyline points="1407.0 425.0,1406.0 428.0,1404.0 429.0,1401.0 428.0,1399.0 428.0" style="fill:none;stroke:#61ff6f;stroke-width:2"/>
<polyline points="1407.0 430.0,1410.0 429.0,1413.0 429.0,1459.0 430.0,1463.0 430.0,1473.0 429.0,1476.0 429.0,1495.0 430.0,1499.0 430.0,1502.0 431.0,1503.0 435.0,1503.0 439.0,1504.0 442.0,1506.0 446.0,1507.0 449.0,1507.0 453.0,1508.0 485.0,1508.0 489.0,1507.0 500.0,1507.0 504.0,1506.0 509.0,1506.0 513.0,1505.0 523.0,1505.0 527.0,1506.0 532.0,1506.0 536.0,1507.0 539.0,1506.0 543.0,1506.0 547.0,1507.0 570.0,1507.0 574.0,1508.0 577.0,1507.0 576.0" style="fill:none;stroke:#61ff6f;stroke-width:2"/>
<polyline points="1510.0 574.0,1514.0 574.0,1519.0 573.0,1522.0 573.0,1533.0 572.0,1538.0 572.0,1543.0 571.0,1546.0 571.0,1551.0 570.0,1554.0 570.0,1570.0 569.0,1573.0 569.0,1614.0 570.0,1618.0 570.0,1634.0 571.0,1638.0 571.0,1664.0 572.0,1668.0 572.0,1699.0 571.0,1702.0 571.0,1705.0 572.0,1709.0 572.0,1788.0 571.0" style="fill:none;stroke:#61ff6f;stroke-width:2"/>
<polyline points="1398.0 86.0,1398.0 82.0,1396.0 81.0,1393.0 80.0,1391.0 81.0,1384.0 86.0,1382.0 87.0,1381.0 89.0,1379.0 95.0,1381.0 98.0,1383.0 100.0,1386.0 101.0,1389.0 103.0,1396.0 104.0,1398.0 105.0,1402.0 106.0,1405.0 109.0,1401.0 113.0,1395.0 118.0,1391.0 119.0,1389.0 120.0,1385.0 120.0,1377.0 119.0,1375.0 118.0,1373.0 117.0" style="fill:none;stroke:#61ff6f;stroke-width:2"/>
<polyline points="1405.0 84.0,1406.0 80.0,1406.0 84.0,1407.0 96.0,1407.0 101.0,1408.0 112.0,1411.0 109.0,1412.0 107.0,1415.0 108.0,1416.0 112.0,1418.0 114.0" style="fill:none;stroke:#ffffff;stroke-width:2"/>
<polyline points="1432.0 105.0,1429.0 104.0,1426.0 106.0,1424.0 108.0,1424.0 111.0,1425.0 114.0,1427.0 115.0,1430.0 114.0,1432.0 112.0,1431.0 109.0,1429.0 107.0" style="fill:none;stroke:#ffffff;stroke-width:2"/>
<polyline points="1436.0 105.0,1438.0 109.0,1439.0 113.0,1441.0 111.0,1442.0 108.0,1444.0 104.0" style="fill:none;stroke:#ffffff;stroke-width:2"/>
<polyline points="1447.0 76.0,1447.0 79.0,1448.0 103.0,1448.0 106.0,1449.0 111.0,1450.0 114.0" style="fill:none;stroke:#ffffff;stroke-width:2"/>
<polyline points="1438.0 100.0,1442.0 100.0,1451.0 101.0,1453.0 102.0,1455.0 104.0,1458.0 105.0,1465.0 102.0,1464.0 99.0,1460.0 99.0,1457.0 101.0,1456.0 104.0,1457.0 106.0,1460.0 110.0,1463.0 111.0,1467.0 111.0,1469.0 110.0,1472.0 109.0,1473.0 105.0,1472.0 103.0,1469.0 101.0,1471.0 103.0,1476.0 105.0,1479.0 108.0,1478.0 111.0,1477.0 113.0,1474.0 114.0,1471.0 114.0" style="fill:none;stroke:#ffffff;stroke-width:2"/>
<polyline points="1478.0 70.0,1477.0 75.0,1477.0 81.0,1478.0 88.0,1478.0 91.0,1479.0 98.0,1479.0 101.0,1480.0 106.0,1481.0 108.0,1481.0 112.0" style="fill:none;stroke:#ffffff;stroke-width:2"/>
<polyline points="1471.0 99.0,1469.0 97.0,1472.0 96.0,1476.0 96.0,1480.0 95.0,1483.0 95.0,1489.0 96.0" style="fill:none;stroke:#ffffff;stroke-width:2"/>
<polyline points="1513.0 88.0,1512.0 86.0,1511.0 83.0,1510.0 81.0,1508.0 79.0,1507.0 77.0,1506.0 84.0,1505.0 88.0,1505.0 91.0,1504.0 101.0,1505.0 106.0,1505.0 111.0,1506.0 95.0,1506.0 91.0,1507.0 87.0,1508.0 84.0,1510.0 80.0,1513.0 78.0,1514.0 80.0,1515.0 84.0,1516.0 86.0,1516.0 92.0,1515.0 99.0,1513.0 101.0,1512.0 105.0,1512.0 109.0,1514.0 112.0,1515.0 114.0,1518.0 115.0" style="fill:none;stroke:#ffffff;stroke-width:2"/>
<polyline points="1530.0 102.0,1527.0 101.0,1525.0 103.0,1524.0 106.0,1525.0 109.0,1526.0 111.0,1531.0 111.0,1534.0 110.0,1535.0 107.0,1534.0 104.0,1533.0 103.0" style="fill:none;stroke:#ffffff;stroke-width:2"/>
<polyline points="1540.0 103.0,1539.0 105.0,1540.0 109.0,1543.0 111.0,1546.0 110.0,1547.0 108.0,1548.0 107.0" style="fill:none;stroke:#ffffff;stroke-width:2"/>
<polyline points="1549.0 71.0,1549.0 78.0,1550.0 85.0,1551.0 91.0,1551.0 94.0,1552.0 98.0,1553.0 101.0,1554.0 106.0,1555.0 108.0,1555.0 110.0" style="fill:none;stroke:#ffffff;stroke-width:2"/>
<polyline points="1542.0 98.0,1547.0 98.0,1549.0 99.0,1553.0 100.0" style="fill:none;stroke:#ffffff;stroke-width:2"/>
<polyline points="1567.0 106.0,1572.0 105.0,1576.0 103.0,1578.0 101.0,1576.0 99.0,1573.0 100.0,1569.0 102.0,1568.0 105.0,1568.0 112.0,1570.0 115.0,1572.0 116.0,1575.0 117.0,1584.0 117.0" style="fill:none;stroke:#ffffff;stroke-width:2"/>
</svg>